<svg xmlns="http://www.w3.org/2000/svg" viewBox="0 0 600 400" width="600" height="400">
  <defs>
    <pattern id="delta" x="0" y="0" width="600" height="400" patternUnits="userSpaceOnUse">
      <rect width="600" height="400" fill="transparent"/>
      <g fill="none" stroke="rgba(255,255,255,0.10)" stroke-width="1.2">
        <path d="M-20 80 Q 80 60, 160 90 T 320 100 T 480 90 T 620 110"/>
        <path d="M-20 150 Q 100 130, 200 160 T 380 170 T 540 150 T 620 170"/>
        <path d="M-20 230 Q 90 210, 180 240 T 340 250 T 500 240 T 620 260"/>
        <path d="M-20 310 Q 80 290, 170 320 T 350 330 T 510 310 T 620 330"/>
        <path d="M120 -20 Q 140 80, 160 160 T 180 320 T 200 420"/>
        <path d="M340 -20 Q 360 100, 380 200 T 400 380 T 420 420"/>
        <path d="M500 -20 Q 520 90, 540 180 T 560 360 T 580 420"/>
      </g>
      <g fill="rgba(255,255,255,0.06)">
        <circle cx="100" cy="200" r="2"/>
        <circle cx="280" cy="120" r="1.5"/>
        <circle cx="450" cy="280" r="2"/>
        <circle cx="200" cy="340" r="1.5"/>
        <circle cx="520" cy="60" r="2"/>
      </g>
    </pattern>
  </defs>
  <rect width="600" height="400" fill="url(#delta)"/>
</svg>
