<?xml version="1.0"?>


<svg xmlns="http://www.w3.org/2000/svg" xml:space="preserve" width="215.9mm" height="279.4mm" version="1.1" style="shape-rendering:geometricPrecision; text-rendering:geometricPrecision; image-rendering:optimizeQuality; fill-rule:evenodd; clip-rule:evenodd" viewBox="0 0 21590 27940" xmlns:xlink="http://www.w3.org/1999/xlink" xmlns:xodm="http://www.corel.com/coreldraw/odm/2003">
 <defs>
  
 </defs>
 <g id="Layer_x0020_1">
  <metadata id="CorelCorpID_0Corel-Layer"></metadata>
  <polygon class="fil0" points="3093.85,9041.4 3093.85,7568.14 3892.57,7568.14 3892.57,7796.56 3359.83,7796.56 3359.83,8184.43 3851.94,8184.43 3851.94,8406.72 3359.83,8406.72 3359.83,8811.44 3946.23,8811.44 3927.83,9041.4 3093.08,9041.4 "></polygon>
  <polygon class="fil0" points="4194.58,9041.4 4194.58,7568.14 4460.57,7568.14 4460.57,8810.68 5039.29,8810.68 5023.2,9040.64 4194.58,9040.64 "></polygon>
  <polygon class="fil0" points="5609.59,7798.86 5609.59,9041.4 5345.14,9041.4 5345.14,7798.86 4925.08,7798.86 4925.08,7568.91 6050.34,7568.91 6034.25,7798.86 "></polygon>
  <path class="fil0" d="M6846.77 8688.8l-534.27 0 -118.05 352.6 -264.45 0 500.54 -1468.66 302.01 -8.44 536.57 1477.1 -295.88 0 -125.71 -352.6 -0.76 0zm-474.48 -213.86l406.25 0 -212.32 -616.29 -193.94 616.29 0.01 0z"></path>
  <polygon class="fil0" points="7302.85,8367.62 7857.05,8367.62 7857.05,8575.35 7302.85,8575.35 "></polygon>
  <polygon class="fil1" points="8976.17,8423.58 8301.63,8423.58 8301.63,9042.17 8035.65,9042.17 8035.65,7568.91 8301.63,7568.91 8301.63,8182.89 8976.17,8182.89 8976.17,7568.91 9242.16,7568.91 9242.16,9042.17 8976.17,9042.17 "></polygon>
  <path class="fil1" d="M10115.23 9064.4c-426.18,0 -602.49,-226.13 -602.49,-686.81l0 -809.45 265.99 0 0 802.55c0,290.52 88.15,454.55 360.27,454.55 272.11,0 336.5,-159.43 336.5,-435.38l0 -821.72 252.19 0 0 821.71c0,423.13 -198.53,674.55 -612.46,674.55l0 0z"></path>
  <path class="fil1" d="M11439.79 9042.17l-442.29 0 0 -1477.87 346.48 0c311.97,0 556.5,98.12 556.5,395.53 0,297.41 -82.02,264.45 -220,311.98 228.43,43.69 314.28,212.33 314.28,341.1 0,266.75 -212.33,428.49 -554.2,428.49l-0.77 0.77zm-88.15 -1280.1l-88.15 0 0 439.22 140.28 0c131.84,0 238.38,-81.25 238.38,-214.63 0,-133.37 -118.04,-224.59 -290.51,-224.59zm14.57 620.12l-101.95 0 0 447.65 183.96 0c146.41,0 274.42,-60.56 274.42,-206.2 0,-145.64 -115.75,-241.45 -356.43,-241.45z"></path>
  <path class="fil0" d="M2844.73 9041.4l-595.59 -1484.76 -649.25 0 46.76 273.65 286.68 0 0 95.05 -107.32 25.29 -442.28 1090 1460.23 0.01 0.77 0.76zm-754.26 -1118.36l348.77 882.27 -696.78 0 348.77 -882.27 -0.76 0z"></path>
  <g id="_2586039473680">
   <path class="fil0" d="M5966.93 4249.88c0,36.77 -56.82,68.53 -82.73,82.73 -76.88,42.62 -151.25,40.95 -197.21,41.78 -104.46,0.84 -207.24,29.25 -311.7,41.79 -261.56,30.92 -391.92,45.96 -488.01,82.72 -65.19,25.08 -132.87,68.53 -269.91,155.44 -222.29,141.22 -242.34,176.32 -405.29,279.93 -157.94,101.12 -152.92,76.88 -477.15,259.89 -188.02,105.29 -283.29,159.6 -373.54,228.13 -81.05,61.83 -203.89,156.26 -321.72,311.69 -57.66,76.05 -104.45,161.28 -197.21,332.59 -112.81,208.07 -119.5,244.84 -197.21,363.5 -106.97,162.95 -162.12,244.01 -259.89,269.91 -137.88,35.94 -269.91,-54.31 -311.69,-82.73 -97.77,-66.85 -142.06,-149.57 -207.24,-269.91 -71.87,-131.19 -106.97,-249.02 -124.51,-321.72 -20.9,-84.4 -61.01,-254.87 -30.92,-467.12 12.53,-89.42 42.61,-173.82 103.61,-342.62 98.61,-274.09 134.54,-296.65 176.32,-467.12 35.1,-142.06 56.83,-231.47 41.79,-352.64 -20.06,-157.1 -80.23,-186.35 -82.73,-352.64 0,-32.59 6.68,-105.29 20.89,-249.02 2.51,-21.73 4.18,-40.95 5.85,-58.5 10.03,-96.93 13.37,-123.67 4.18,-170.47 -20.06,-104.45 -62.68,-109.47 -72.71,-197.21 -10.86,-96.94 37.61,-129.52 51.81,-228.13 15.05,-102.79 -21.72,-164.62 -82.73,-321.72 -71.03,-181.34 -23.39,-104.46 -145.4,-457.1 -95.26,-275.76 -142.89,-414.48 -187.18,-498.04 -82.73,-159.61 -145.41,-225.63 -187.19,-394.43 -45.96,-187.18 -6.68,-255.7 10.03,-279.93 58.5,-84.4 169.63,-98.61 207.24,-103.62 150.42,-19.22 195.54,60.16 425.34,114.48 91.92,21.73 178.83,28.41 352.64,41.78 207.24,15.88 279.11,6.69 363.51,62.68 79.38,52.64 81.06,103.61 145.4,187.18 81.89,105.29 177.99,150.42 549.85,279.94 271.59,95.26 407.8,142.06 518.94,173.81 110.3,30.92 431.19,118.66 861.54,178.83 319.22,45.13 478.82,67.69 581.61,62.67 180.5,-9.19 325.9,-44.29 477.15,41.79 46.8,25.9 130.36,73.53 166.29,166.29 25.91,66.85 5.02,105.29 41.78,197.21 12.54,32.59 34.27,87.74 82.73,135.38 49.3,48.46 80.23,42.61 239,114.48 116.15,52.65 141.22,73.53 155.43,103.62 19.22,39.27 22.56,95.26 0,135.37 -39.28,67.69 -148.75,72.71 -384.4,62.68 -340.94,-15.88 -511.41,-23.4 -633.41,-62.68 -94.43,-30.08 -211.42,-92.75 -446.24,-218.1 -254.03,-135.37 -246.51,-147.91 -363.5,-197.21 -203.06,-86.07 -376.88,-112.81 -529.8,-135.38 -280.77,-40.94 -277.43,0 -549.85,-41.78 -215.6,-32.59 -368.52,-55.99 -539.83,-155.43 -106.12,-61.84 -220.61,-152.92 -300.83,-218.1 -41.78,-33.43 -120.33,-97.77 -236.48,-184.68 -14.21,-10.03 -45.13,-33.42 -74.38,-54.31 -116.99,-83.57 -363.5,-244.01 -384.39,-218.11 -15.04,18.39 85.24,136.21 187.18,218.11 60.17,49.3 78.55,50.97 155.43,114.48 71.87,58.49 99.44,91.92 155.44,145.4 38.44,36.77 82.73,73.54 238.99,187.19 203.9,147.07 305.85,220.61 373.53,259.88 373.54,213.09 667.68,87.74 1027.84,290.8 77.72,43.46 153.76,100.28 176.32,187.19 19.22,71.86 -15.04,105.29 -10.02,218.1 0.83,22.56 6.68,131.2 62.67,238.99 62.67,119.5 157.94,181.34 249.02,239 81.89,50.97 153.76,82.73 332.59,145.4 472.14,165.46 643.44,218.1 643.44,218.1 157.94,48.47 279.11,81.9 279.94,135.38l1.68 -5.86z"></path>
   <circle class="fil2 str0" cx="3861.11" cy="3024.83" r="62.67"></circle>
   <polyline class="fil2 str1" points="2247.49,3534.57 2453.89,3534.57 2894.27,3024.83 3807.63,3024.83 "></polyline>
   <polyline class="fil2 str2" points="3119.9,3541.26 3182.57,3767.72 3912.92,3772.73 "></polyline>
   <polyline class="fil2 str2" points="3577.83,3772.73 3714.87,3628.17 4141.05,3629.84 "></polyline>
   <polyline class="fil2 str2" points="3904.57,3625.66 3904.57,3491.12 4232.97,3491.12 "></polyline>
   <ellipse class="fil2 str3" cx="4286.45" cy="3491.12" rx="50.97" ry="49.3"></ellipse>
   <ellipse class="fil2 str4" cx="4190.36" cy="3630.67" rx="50.97" ry="49.3"></ellipse>
   <ellipse class="fil2 str5" cx="3963.9" cy="3772.73" rx="50.97" ry="49.3"></ellipse>
   <ellipse class="fil2 str6" cx="3098.17" cy="3502.82" rx="50.97" ry="49.3"></ellipse>
   <polyline class="fil2 str1" points="2259.19,3630.67 2423.81,3645.71 2576.73,3864.65 "></polyline>
   <ellipse class="fil2 str7" cx="2611.83" cy="3899.75" rx="50.97" ry="49.3"></ellipse>
   <line class="fil2 str8" x1="2304.31" y1="4552.38" x2="2484.81" y2="4600.85"></line>
   <polyline class="fil2 str1" points="2335.23,4338.46 2640.24,4369.38 2798.18,4608.37 2844.97,4613.39 "></polyline>
   <circle class="fil3" cx="2863.36" cy="4611.71" r="36.77"></circle>
   <polyline class="fil2 str8" points="2270.89,4152.11 2788.15,4144.59 2977,4142.09 3167.53,4363.53 3222.68,4362.7 "></polyline>
   <circle class="fil2 str9" cx="3249.42" cy="4362.7" r="36.77"></circle>
   <line class="fil2 str8" x1="2243.31" y1="3995.01" x2="2434.67" y2="3959.08"></line>
   <circle class="fil2 str10" cx="2455.56" cy="3956.57" r="36.77"></circle>
   <circle class="fil2 str11" cx="2504.03" cy="4610.04" r="36.77"></circle>
   <circle class="fil2 str12" cx="3469.2" cy="4910.87" r="40.94"></circle>
   <polyline class="fil2 str8" points="2818.23,3354.08 2992.05,3142.66 3617.11,3142.66 "></polyline>
   <circle class="fil2 str13" cx="3676.43" cy="3142.66" r="59.33"></circle>
   <polyline class="fil2 str8" points="3500.95,4232.34 3563.63,4005.88 4293.97,4000.86 "></polyline>
   <polyline class="fil2 str8" points="3958.88,4000.86 4096.76,4145.43 4522.11,4143.76 "></polyline>
   <polyline class="fil2 str8" points="4285.62,4147.94 4285.62,4282.47 4614.03,4282.47 "></polyline>
   <ellipse class="fil2 str14" cx="4667.51" cy="4282.47" rx="50.97" ry="49.3"></ellipse>
   <ellipse class="fil2 str15" cx="4571.41" cy="4142.92" rx="50.97" ry="49.3"></ellipse>
   <ellipse class="fil2 str16" cx="4344.95" cy="4000.86" rx="50.97" ry="49.3"></ellipse>
   <ellipse class="fil2 str17" cx="3479.23" cy="4270.78" rx="50.97" ry="49.3"></ellipse>
   <ellipse class="fil2 str18" transform="matrix(0.25966 -0.179797 0.179797 0.25966 5200.93 4225.18)" rx="95.25" ry="92.6"></ellipse>
   <polyline class="fil2 str2" points="5173.07,4213.95 4995.91,4147.94 4905.66,4028.44 "></polyline>
   <ellipse class="fil2 str19" transform="matrix(0.25966 -0.179797 0.179797 0.25966 4885.83 4010.34)" rx="95.25" ry="92.6"></ellipse>
   <circle class="fil2 str20" cx="2644.42" cy="1692.82" r="35.93"></circle>
   <circle class="fil2 str21" cx="2962.8" cy="1996.99" r="35.93"></circle>
   <polyline class="fil2 str8" points="2643.58,1728.75 2702.08,1792.26 2700.41,1851.59 2768.09,1916.77 2869.21,1919.28 2928.54,1973.59 "></polyline>
   <rect class="fil4" transform="matrix(-0.100738 0.299337 -0.299337 -0.100738 5758.55 2540.05)" width="439.21" height="441.85"></rect>
   <rect class="fil4" transform="matrix(-0.100738 0.299337 -0.299337 -0.100738 5707.94 2688.26)" width="439.21" height="441.85"></rect>
   <rect class="fil4" transform="matrix(-0.100738 0.299337 -0.299337 -0.100738 5610.69 2489.92)" width="439.21" height="441.85"></rect>
   <rect class="fil4" transform="matrix(-0.100738 0.299337 -0.299337 -0.100738 5560.91 2638.96)" width="439.21" height="441.85"></rect>
   <rect class="fil4" transform="matrix(-0.100738 0.299337 -0.299337 -0.100738 5459.06 2439.71)" width="439.21" height="441.85"></rect>
   <rect class="fil4" transform="matrix(-0.100738 0.299337 -0.299337 -0.100738 5409.28 2587.92)" width="439.21" height="441.85"></rect>
   <rect class="fil4" transform="matrix(-0.100738 0.299337 -0.299337 -0.100738 5312.03 2390.41)" width="439.21" height="441.85"></rect>
   <rect class="fil4" transform="matrix(-0.100738 0.299337 -0.299337 -0.100738 5261.42 2538.62)" width="439.21" height="441.85"></rect>
   <polyline class="fil2 str1" points="2051.95,5064.63 2222.42,5064.63 2553.33,4747.93 "></polyline>
   <circle class="fil3" cx="2553.33" cy="4747.93" r="40.11"></circle>
   <line class="fil2 str1" x1="2699.57" y1="4905.86" x2="3439.95" y2="4905.86"></line>
   <polyline class="fil2 str2" points="4153.59,2126.52 3546.91,2130.7 3546.91,2410.63 "></polyline>
   <polyline class="fil2 str2" points="3875.32,2126.52 3989.8,2251.03 4343.28,2249.35 "></polyline>
   <polyline class="fil2 str2" points="4146.07,2252.7 4146.9,2368.85 4419.32,2368.85 "></polyline>
   <circle class="fil2 str22" cx="4463.61" cy="2368.85" r="41.78"></circle>
   <circle class="fil2 str23" cx="4384.22" cy="2248.52" r="41.78"></circle>
   <circle class="fil2 str24" cx="4195.37" cy="2126.52" r="41.78"></circle>
   <polyline class="fil2 str1" points="1825.49,5322.85 2514.06,5322.85 2870.88,5659.61 "></polyline>
   <circle class="fil3" cx="2870.88" cy="5659.61" r="74.37"></circle>
   <polyline class="fil2 str1" points="2064.48,2565.23 2229.1,2549.35 2382.03,2331.25 "></polyline>
   <ellipse class="fil2 str25" cx="2417.12" cy="2296.15" rx="50.97" ry="49.3"></ellipse>
   <line class="fil2 str8" x1="2067.82" y1="2759.1" x2="2945.25" y2="2759.1"></line>
   <circle class="fil2 str26" cx="3015.44" cy="2759.1" r="70.19"></circle>
   <polyline class="fil2 str8" points="2026.88,5733.15 2329.38,5786.63 2468.93,6036.48 2514.9,6044.84 "></polyline>
   <circle class="fil2 str27" cx="2583.42" cy="6057.38" r="70.19"></circle>
   <line class="fil2 str8" x1="1891.5" y1="2225.96" x2="2133.84" y2="2067.19"></line>
   <circle class="fil2 str28" cx="2178.97" cy="2033.76" r="70.19"></circle>
   <line class="fil2 str1" x1="2648.6" y1="5067.98" x2="3005.42" y2="5404.74"></line>
   <circle class="fil2 str29" cx="3055.55" cy="5442.34" r="74.37"></circle>
   <rect class="fil2 str30" x="3659.72" y="4401.13" width="399.44" height="399.44"></rect>
   <rect class="fil4" x="3679.78" y="4421.19" width="359.33" height="359.33"></rect>
   <rect class="fil0" x="5690.33" y="4432.89" width="210.58" height="210.58"></rect>
   <rect class="fil4" x="5218.2" y="4630.1" width="170.47" height="155.43"></rect>
   <rect class="fil4" x="3513.49" y="5986.34" width="160.44" height="172.98"></rect>
   <circle class="fil0" cx="3399.84" cy="5606.96" r="78.55"></circle>
   <circle class="fil0" cx="4638.26" cy="5055.44" r="89.41"></circle>
   <rect class="fil0" x="2679.52" y="6536.2" width="208.07" height="208.07"></rect>
   <rect class="fil0" x="3087.2" y="6671.2" width="225.62" height="225.62"></rect>
   <rect class="fil0" x="7106.74" y="2380.55" width="175.49" height="175.49"></rect>
   <rect class="fil4" x="7364.96" y="2152.42" width="180.5" height="180.5"></rect>
   <rect class="fil0" x="6465.81" y="2338.77" width="250.69" height="250.69"></rect>
   <rect class="fil0" x="7515.37" y="2530.97" width="157.94" height="157.94"></rect>
   <rect class="fil4" x="3869.47" y="5848.47" width="122.84" height="122.84"></rect>
   <path class="fil2 str1" d="M4496.2 3166.05c19.22,61.01 51.81,146.24 108.64,239 50.13,81.89 104.45,144.56 131.19,172.14 193.04,192.2 678.48,275.13 726.12,266.77"></path>
   <path class="fil2 str1" d="M4531.3 2768.29c55.99,2.51 183,15.88 312.53,101.11 116.99,77.72 177.15,175.49 203.89,224.79"></path>
   <path class="fil2 str31" d="M3041.35 6475.2c19.22,-118.67 66.01,-304.18 198.04,-481.33 78.56,-104.46 195.55,-218.11 467.13,-354.31 213.92,-106.97 437.88,-177.16 668.51,-233.98 192.2,-46.8 407.8,-66.86 506.4,-265.74 43.46,-88.58 53.48,-188.85 68.53,-286.62 15.04,-97.77 39.27,-198.89 105.29,-272.42 114.48,-127.86 439.55,-96.1 601.66,-116.16"></path>
   <path class="fil2 str32" d="M4188.68 5739.83c250.7,-150.41 530.64,-234.81 783,-382.72 222.28,-116.16 327.58,-203.9 284.12,-496.37"></path>
   <path class="fil2 str1" d="M6637.12 3298.09c151.25,-59.33 234.81,-137.89 283.28,-198.05 100.28,-125.35 100.28,-235.65 212.25,-311.7 78.55,-53.48 167.96,-59.33 226.46,-56.82"></path>
   <path class="fil2 str33" d="M6722.35 3043.22c11.7,-55.99 42.62,-166.3 130.36,-271.59 68.53,-82.73 143.73,-128.69 190.53,-152.08"></path>
   <path class="fil5" d="M4565.56 3060.88c-6.69,0 111.97,58.9 200.55,141.01 72.7,67.83 66.86,74.08 139.55,161.55 41.79,49.98 94.43,74.97 143.73,102.63 116.99,65.16 225.63,94.61 467.96,150.84 3.35,0 45.96,10.71 131.2,29.45 323.4,74.07 330.92,74.97 368.52,84.78 122,31.24 224.79,57.12 347.63,108 152.08,63.36 251.53,104.42 298.32,188.32 43.45,77.64 7.52,197.24 5.02,207.95 -4.18,18.74 -9.2,33.91 -11.7,39.27 -26.74,78.54 -58.5,103.53 -82.73,174.04 -5.85,16.06 -12.54,34.81 -15.88,61.58 -10.86,78.54 16.71,141.01 30.08,170.47 0,0 15.05,32.13 35.1,62.47 99.44,144.59 385.23,263.29 385.23,263.29 246.52,113.35 453.76,182.07 584.12,224.91 274.92,88.36 379.38,114.24 729.51,217.77 376.88,111.56 564.9,167.79 740.38,231.15 291.64,105.32 502.22,181.18 744.56,330.23 178.83,109.78 385.23,238.3 518.1,461.42 71.03,118.71 106.96,249.9 118.66,325.77l175.49 16.06c-4.18,-64.26 -17.55,-152.62 -58.5,-253.47 -13.37,-33.02 -61,-144.59 -172.14,-273.11 -96.94,-113.34 -195.54,-184.74 -271.59,-239.18 -182.16,-131.2 -347.62,-207.06 -503.89,-278.46 -199.72,-91.04 -355.98,-144.59 -547.34,-210.64 -189.69,-65.15 -353.48,-113.34 -671.86,-206.16 -382.72,-111.57 -429.52,-120.49 -666.01,-194.57 -369.35,-116.02 -501.38,-173.14 -600.82,-222.23 -273.26,-128.52 -490.52,-270.43 -397.77,-511.4 36.77,-104.42 96.1,-203.49 93.59,-312.37 -15.87,-210.64 -312.53,-313.27 -545.67,-383.78 -137.88,-41.95 -273.26,-70.51 -544.84,-126.74 -147.07,-30.34 -160.44,-31.23 -234.82,-49.98 -131.19,-32.13 -264.06,-66.04 -380.21,-122.27 -58.5,-27.67 -111.98,-60.69 -157.94,-99.96 -34.26,-29.45 -60.16,-62.47 -91.08,-93.71 -44.29,-43.73 -91.92,-87.46 -147.91,-124.06 -38.44,-25.88 -91.09,-47.3 -154.59,-52.65l-0.01 1.78z"></path>
   <path class="fil5" d="M5000.09 3180.47c-11.7,7.14 102.79,162.44 330.92,254.36 61,24.99 132.03,40.17 274.92,71.41 215.6,46.4 285.79,49.98 504.73,91.92 224.79,42.84 378.54,83 423.67,94.61 178.83,47.3 370.19,99.07 503.89,202.59 147.08,113.35 137.88,250.8 116.99,397.17 -14.2,97.28 -23.39,205.27 40.11,295.41 69.36,96.39 201.4,152.62 326.74,205.28 397.77,166.01 747.9,244.54 782.16,252.58 620.05,139.23 930.07,208.84 1249.29,299.88 349.29,99.06 590.79,169.57 882.43,316.83 181.34,91.04 426.18,217.77 642.61,447.14 50.98,54.45 198.89,217.77 299.16,456.96 50.98,120.49 71.04,219.56 83.57,298.1l124.51 5.36c-4.18,-56.23 -21.73,-85.68 -43.45,-167.79 -14.21,-52.66 -50.14,-174.93 -135.38,-322.2 -45.13,-77.65 -144.57,-233.83 -329.24,-401.62 -45.96,-41.95 -228.13,-203.49 -589.97,-382.89 -357.65,-177.6 -666,-260.6 -1041.21,-360.57 -563.22,-149.04 -1271.01,-263.28 -1821.7,-481.95 -203.89,-81.21 -374.36,-182.96 -386.9,-366.81 -5.85,-88.36 28.41,-175.83 33.42,-264.19 17.55,-321.3 -579.09,-467.67 -919.2,-539.96 -203.9,-43.73 -202.23,-27.66 -600.83,-101.74 -258.21,-47.31 -353.47,-71.41 -459.6,-118.71 -193.87,-85.68 -282.45,-184.75 -291.64,-178.5l0 -2.67z"></path>
   <g>
    <path class="fil6" d="M5737.13 3823.97c111.14,39.27 218.94,89.24 318.38,141.9 99.44,53.55 177.99,138.34 167.13,228.48 -10.03,83 -88.58,149.94 -150.42,215.99 -69.35,74.97 -104.45,157.97 -113.64,248.11 -0.84,11.61 -1.67,40.16 0,57.12 1.67,14.28 5.01,29.45 5.01,29.45 0,0 0,0 0,0.9 2.51,11.6 8.36,30.34 20.89,56.22 0,0.9 0.84,2.68 1.67,3.57 0,0 10.87,20.53 25.08,42.84 34.26,51.77 73.53,91.93 73.53,91.93 22.56,23.2 40.11,37.49 73.54,65.15 45.96,37.49 82.73,64.26 91.92,70.51 13.37,9.82 57.65,41.06 129.52,82.11 35.1,20.53 72.7,41.06 180.5,94.61 79.38,39.27 118.66,58.9 186.35,91.03 190.52,90.15 355.14,162.44 538.15,246.33 162.11,74.08 307.52,141.91 480.49,226.7 62.68,30.34 197.22,85.68 341.78,182.07 55.16,36.59 88.58,64.26 98.61,72.29 34.26,27.67 132.03,107.99 201.39,219.56 94.43,150.83 119.49,319.51 115.32,398.05l102.78 8.93c6.69,-46.41 -6.68,-147.27 -28.41,-230.27 -45.12,-173.14 -170.47,-290.95 -246.51,-361.46 -77.72,-72.29 -152.09,-122.27 -226.46,-172.26 -20.06,-13.38 -95.27,-63.36 -229.8,-138.33 -82.73,-45.52 -190.53,-102.64 -376.04,-188.32 -90.25,-41.94 -218.1,-97.28 -469.63,-205.27 -152.09,-65.16 -257.38,-110.67 -403.62,-182.07 -96.1,-46.41 -167.13,-83.9 -245.68,-132.99 -109.47,-68.72 -164.62,-114.24 -189.69,-136.55 -40.11,-35.7 -82.73,-74.07 -119.49,-132.98 -19.22,-31.24 -44.29,-73.19 -50.14,-130.3 -5.02,-50.88 6.68,-89.25 13.37,-110.67 17.54,-54.45 45.96,-91.04 95.26,-153.51 54.32,-68.72 71.87,-76.76 107.8,-132.98 28.41,-43.74 41.78,-66.05 46.8,-96.39 13.36,-79.44 -42.62,-144.59 -63.51,-167.8l-91.92 -88.35c66.85,23.2 69.35,23.2 95.26,33.02 66.02,24.1 99.44,37.49 116.99,45.52 18.39,8.92 94.43,54.44 112.82,128.52 10.02,41.94 -3.35,74.97 -21.73,119.59 -10.03,24.1 -21.73,45.52 -81.89,127.63 -38.44,52.66 -102.79,116.92 -110.31,181.17 -12.53,107.1 36.77,199.93 121.17,284.71 78.55,78.54 158.77,125.84 254.87,181.18 90.25,51.76 160.45,84.78 252.37,126.73 51.81,24.1 140.38,63.37 331.75,139.23 166.29,65.16 293.31,111.57 320.05,122.28 411.13,150.83 694.42,254.36 1009.45,396.27 204.74,91.92 313.37,149.94 376.88,186.53 125.35,70.51 259.88,147.26 400.27,271.32 64.34,57.12 139.55,124.95 208.07,228.48 67.69,102.63 97.77,196.34 112.82,262.39l123.67 10.71c-5.85,-42.84 -18.38,-104.42 -50.14,-175.82 -75.21,-170.47 -208.07,-281.14 -350.13,-397.16 -126.18,-102.64 -239,-171.36 -327.57,-224.91 -60.17,-36.6 -161.28,-97.29 -304.18,-163.33 -130.36,-60.69 -176.32,-71.4 -395.26,-156.19 -241.5,-94.6 -213.92,-92.82 -417.82,-171.36 -190.52,-74.08 -200.55,-69.62 -504.72,-182.07 -228.13,-83.89 -327.58,-125.84 -377.72,-146.37 -198.04,-83.9 -293.31,-134.77 -345.12,-163.33 -172.97,-97.28 -233.97,-157.97 -250.69,-174.93 -61.84,-63.36 -105.29,-107.99 -116.99,-169.57 -34.26,-172.26 219.77,-261.5 214.76,-463.21 0,-29.45 -2.51,-93.71 -57.66,-149.05 -32.59,-32.13 -86.91,-64.26 -96.1,-70.5 -13.37,-8.04 -34.26,-19.64 -72.7,-37.49 -62.67,-29.45 -122.84,-51.77 -188.85,-74.08 -65.19,-21.42 -122.84,-38.37 -188.02,-56.22 -111.14,-29.46 -228.13,-60.7 -386.07,-90.15 -172.14,-32.13 -177.16,-32.13 -304.17,-58.01l486.33 165.12zm0 0l0 0 0 0z"></path>
   </g>
   <path class="fil3" d="M7563.84 4548.67c255.71,201.71 576.6,262.4 879.93,332.01 445.4,97.29 950.96,174.93 1394.69,280.25 463.78,109.78 912.52,305.23 1309.45,583.69 -418.65,-236.51 -860.71,-413.22 -1323.66,-513.18 -386.06,-84.79 -775.47,-149.05 -1160.7,-237.41 -154.6,-34.8 -309.19,-73.18 -461.28,-117.81 -228.13,-66.93 -460.43,-155.29 -638.43,-326.65l0 0 0 -0.9z"></path>
   <path class="fil6" d="M9865.2 5094.88c-299.16,-75.86 -605,-126.73 -910.85,-186.53 -424.5,-90.14 -938.42,-144.59 -1262.65,-381.99 -252.37,-177.61 -249.86,-427.51 -421.17,-629.21 -202.22,-229.37 -601.66,-304.34 -932.57,-381.1 -264.9,-58.91 -543.17,-116.91 -801.38,-183.85 -6.69,-1.79 -13.37,-3.57 -19.22,-5.36 -45.96,-12.49 -51.81,-16.96 -26.74,-14.28 163.78,24.99 350.97,64.26 525.62,95.5 266.57,50.87 545.67,98.17 805.56,171.36 164.62,46.41 328.4,110.67 446.23,208.84 118.66,99.07 166.29,226.7 225.62,348.08 66.02,134.77 147.08,261.5 289.14,361.46 117.82,83 261.55,145.48 411.97,191 133.7,41.05 273.26,68.72 414.48,92.82 127.85,21.42 249.85,48.19 376.04,70.51 284.12,50.87 569.07,99.95 842.32,175.82 180.5,49.98 399.44,116.02 544.01,161.54 77.71,24.99 -436.21,-79.43 -502.22,-93.71l-3.35 0 -0.84 -0.9z"></path>
   <polygon class="fil6" points="10567.14,5363.53 10476.89,5479.55 10318.12,5413.5 10409.2,5297.48 "></polygon>
   <path class="fil6" d="M6581.13 5168.07c-7.52,55.33 -65.18,94.6 -128.69,88.36 -63.51,-6.25 -108.64,-57.12 -101.12,-112.46 7.52,-55.33 65.19,-94.61 128.69,-88.36 63.51,6.25 108.64,57.12 101.12,112.46z"></path>
   <path class="fil5" d="M7080.84 4296.1c-5.01,36.59 -43.45,63.36 -86.07,58.9 -42.62,-4.46 -72.7,-38.37 -67.69,-74.97 5.02,-36.59 43.46,-63.36 86.08,-58.9 42.61,4.46 72.7,38.37 67.68,74.97z"></path>
   <polygon class="fil5" points="8412.86,5298.37 8226.51,5256.43 8284.17,5120.77 8469.68,5162.72 "></polygon>
   <path class="fil6" d="M8579.15 5742.84c-9.19,56.23 -78.55,96.39 -155.43,89.25 -76.88,-7.14 -131.2,-58.01 -122.01,-113.35 9.19,-56.23 78.55,-96.39 155.43,-89.25 76.88,7.14 131.2,58.01 122.01,113.35z"></path>
   <g>
    <path class="fil3" d="M11418.45 5912.07l-21.48 30.94 -0.16 -0.12 -4.98 -3.53 -4.96 -3.47 -4.93 -3.39 -4.93 -3.33 -4.92 -3.28 -4.92 -3.22 -4.88 -3.16 -4.86 -3.08 -4.84 -3.04 -4.83 -2.97 -4.81 -2.93 -4.77 -2.86 -4.73 -2.79 -4.72 -2.75 -4.71 -2.7 -4.65 -2.63 -4.63 -2.59 -4.57 -2.52 -4.57 -2.47 -4.51 -2.43 -4.48 -2.37 -4.45 -2.33 -4.38 -2.26 -4.36 -2.21 -4.31 -2.18 -4.26 -2.12 -4.23 -2.08 -4.16 -2.03 -4.1 -1.97 -4.08 -1.94 -3.99 -1.88 -3.96 -1.84 15.76 -34.24 4.08 1.9 4.15 1.96 4.2 2 4.26 2.05 4.32 2.11 4.35 2.14 4.42 2.2 4.47 2.24 4.52 2.31 4.58 2.36 4.59 2.41 4.66 2.45 4.71 2.53 4.73 2.57 4.79 2.64 4.81 2.69 4.85 2.75 4.87 2.8 4.92 2.85 4.97 2.93 4.99 3 4.99 3.03 5.03 3.11 5.06 3.16 5.1 3.24 5.1 3.3 5.12 3.36 5.14 3.42 5.17 3.49 5.19 3.57 5.18 3.63 5.2 3.69 -0.16 -0.12zm-21.48 30.94l-0.16 -0.12 0.5 0.36 -0.34 -0.24zm151.52 81.65l-27.36 25.82 0.12 0.14 -5.22 -5.42 -5.2 -5.31 -5.18 -5.18 -5.13 -5.06 -5.1 -4.94 -5.03 -4.81 -4.99 -4.67 -4.93 -4.56 -4.87 -4.44 -4.77 -4.29 -4.71 -4.17 -4.62 -4.04 -4.52 -3.89 -4.43 -3.76 -4.32 -3.62 -4.22 -3.5 -4.07 -3.34 -3.97 -3.2 -3.85 -3.08 -3.69 -2.91 -3.55 -2.78 -3.4 -2.62 -3.26 -2.48 -3.09 -2.34 -2.93 -2.19 -2.76 -2.05 -2.53 -1.86 -2.4 -1.73 -2.2 -1.6 -1.94 -1.38 -1.81 -1.27 -1.59 -1.12 21.48 -30.94 1.67 1.18 1.89 1.33 2.16 1.54 2.3 1.66 2.5 1.81 2.75 2.02 2.86 2.13 3.07 2.29 3.23 2.44 3.4 2.6 3.58 2.76 3.71 2.9 3.87 3.05 3.99 3.2 4.15 3.34 4.27 3.5 4.38 3.62 4.5 3.78 4.61 3.92 4.72 4.07 4.8 4.2 4.91 4.33 4.99 4.49 5.05 4.6 5.13 4.74 5.21 4.89 5.27 5.03 5.3 5.14 5.35 5.28 5.4 5.4 5.44 5.55 5.46 5.66 0.12 0.14zm-0.12 -0.14l0.12 0.14 -0.68 -0.73 0.56 0.59zm129.3 185.38l-33.76 16.54 -0.01 -0.03 -3.85 -7.82 -3.93 -7.68 -3.97 -7.55 -4.03 -7.4 -4.07 -7.26 -4.12 -7.11 -4.15 -6.98 -4.18 -6.83 -4.18 -6.69 -4.2 -6.53 -4.21 -6.4 -4.2 -6.23 -4.21 -6.09 -4.18 -5.93 -4.15 -5.77 -4.15 -5.63 -4.09 -5.47 -4.07 -5.31 -4.01 -5.15 -3.96 -5 -3.89 -4.83 -3.84 -4.68 -3.74 -4.5 -3.68 -4.34 -3.59 -4.18 -3.49 -4.02 -3.39 -3.84 -3.3 -3.68 -3.16 -3.52 -3.05 -3.32 -2.95 -3.19 -2.78 -3 27.36 -25.82 2.92 3.12 3.03 3.29 3.21 3.5 3.32 3.68 3.44 3.84 3.55 4.04 3.67 4.2 3.75 4.38 3.86 4.56 3.94 4.74 4.02 4.9 4.09 5.07 4.16 5.24 4.21 5.41 4.27 5.59 4.31 5.75 4.35 5.91 4.39 6.09 4.4 6.25 4.41 6.41 4.44 6.57 4.43 6.74 4.44 6.89 4.42 7.05 4.4 7.21 4.37 7.36 4.36 7.53 4.31 7.68 4.27 7.84 4.21 7.99 4.15 8.14 4.09 8.3 -0.01 -0.03zm-33.76 16.54l-0.01 -0.03 1.44 2.98 -1.43 -2.95zm93.82 195.1l-37.4 3.5 -0.48 -4.98 -0.54 -5.07 -0.6 -5.17 -0.66 -5.24 -0.73 -5.33 -0.8 -5.46 -0.86 -5.52 -0.93 -5.59 -1.01 -5.68 -1.09 -5.79 -1.16 -5.85 -1.24 -5.9 -1.34 -6.01 -1.42 -6.09 -1.51 -6.15 -1.6 -6.23 -1.71 -6.31 -1.79 -6.39 -1.9 -6.42 -2 -6.5 -2.11 -6.58 -2.22 -6.65 -2.33 -6.71 -2.44 -6.77 -2.56 -6.82 -2.67 -6.9 -2.81 -6.94 -2.91 -7 -3.06 -7.07 -3.17 -7.11 -3.32 -7.16 -3.45 -7.21 33.76 -16.54 3.65 7.65 3.52 7.6 3.37 7.55 3.24 7.49 3.11 7.44 2.97 7.38 2.85 7.32 2.72 7.26 2.6 7.21 2.47 7.13 2.36 7.07 2.25 7 2.14 6.94 2.02 6.88 1.91 6.79 1.81 6.71 1.72 6.65 1.61 6.57 1.52 6.49 1.42 6.41 1.34 6.34 1.24 6.25 1.15 6.15 1.09 6.08 0.99 5.99 0.92 5.9 0.84 5.78 0.79 5.71 0.7 5.64 0.64 5.51 0.58 5.43 0.52 5.32z"></path>
   </g>
   <polygon class="fil3" points="11634.48,6373.06 11744.22,6682.24 11793.5,6355.72 "></polygon>
   <g>
    <polygon class="fil1" points="7275.73,5833.69 7264.59,5876.11 7229.39,5866.49 7192.39,5855.8 7153.79,5844.08 7113.73,5831.4 7072.4,5817.79 7029.96,5803.31 6986.59,5788 6942.48,5771.94 6897.78,5755.15 6852.66,5737.71 6807.32,5719.63 6761.92,5701.01 6716.63,5681.87 6671.64,5662.26 6627.1,5642.24 6583.21,5621.87 6540.14,5601.18 6498.05,5580.22 6457.11,5559.05 6417.51,5537.72 6379.42,5516.27 6342.99,5494.74 6308.41,5473.18 6275.82,5451.63 6245.42,5430.11 6217.34,5408.67 6191.76,5387.3 6168.82,5366.01 6148.69,5344.78 6131.54,5323.54 6117.56,5302.16 6107.06,5280.54 6147.66,5264.34 6155.46,5280.34 6166.74,5297.56 6181.45,5315.76 6199.44,5334.73 6220.54,5354.3 6244.52,5374.33 6271.22,5394.71 6300.42,5415.37 6331.95,5436.22 6365.59,5457.2 6401.18,5478.23 6438.53,5499.26 6477.45,5520.23 6517.75,5541.08 6559.28,5561.74 6601.81,5582.17 6645.2,5602.32 6689.26,5622.12 6733.81,5641.53 6778.66,5660.49 6823.64,5678.95 6868.58,5696.85 6913.28,5714.15 6957.58,5730.78 7001.29,5746.7 7044.24,5761.85 7086.24,5776.19 7127.11,5789.64 7166.69,5802.18 7204.77,5813.74 7241.17,5824.25 "></polygon>
   </g>
   <polygon class="fil1" points="7186.74,5934.44 7542.85,5927.26 7231.53,5743.07 "></polygon>
   <g>
    <polygon class="fil1" points="10141.8,5018.88 10141.18,4975.02 10169.67,4975.05 10199.19,4975.93 10229.67,4977.61 10261.03,4980.08 10293.17,4983.31 10326.02,4987.29 10359.5,4991.99 10393.52,4997.39 10427.98,5003.46 10462.8,5010.2 10497.9,5017.57 10533.19,5025.55 10568.58,5034.14 10603.98,5043.3 10639.29,5053.02 10674.45,5063.27 10709.35,5074.04 10743.92,5085.31 10778.05,5097.05 10811.65,5109.25 10844.65,5121.89 10876.96,5134.94 10908.49,5148.41 10939.16,5162.26 10968.86,5176.46 10997.52,5191.04 11025.06,5205.94 11051.39,5221.18 11076.43,5236.72 11100.07,5252.57 11122.26,5268.72 11142.9,5285.19 11114.92,5318.87 11095.86,5303.68 11075.13,5288.59 11052.81,5273.62 11029.01,5258.84 11003.8,5244.26 10977.3,5229.92 10949.6,5215.84 10920.8,5202.06 10890.99,5188.59 10860.26,5175.48 10828.71,5162.73 10796.43,5150.37 10763.53,5138.43 10730.08,5126.91 10696.19,5115.86 10661.95,5105.29 10627.43,5095.24 10592.74,5085.7 10558,5076.7 10523.25,5068.27 10488.62,5060.43 10454.2,5053.2 10420.06,5046.6 10386.32,5040.65 10353.06,5035.37 10320.38,5030.79 10288.37,5026.91 10257.13,5023.76 10226.75,5021.37 10197.33,5019.75 10168.99,5018.91 "></polygon>
   </g>
   <polygon class="fil1" points="11206.34,5200.31 11448.68,5545.17 11077.57,5375.79 "></polygon>
   <g>
    <polygon class="fil1" points="10959.34,6508.28 10916.18,6515.04 10913.79,6501.28 10910.94,6487.58 10907.59,6473.92 10903.79,6460.3 10899.51,6446.75 10894.77,6433.26 10889.59,6419.85 10883.93,6406.52 10877.83,6393.28 10871.29,6380.13 10864.3,6367.09 10856.88,6354.15 10849.03,6341.35 10840.75,6328.67 10832.06,6316.13 10822.94,6303.74 10813.41,6291.5 10803.47,6279.42 10793.13,6267.5 10782.39,6255.76 10771.27,6244.22 10759.75,6232.87 10747.86,6221.72 10735.59,6210.78 10722.94,6200.06 10709.93,6189.55 10696.56,6179.29 10682.84,6169.27 10668.76,6159.51 10654.34,6149.99 10639.59,6140.75 10624.49,6131.78 10646.31,6093.78 10662.27,6103.27 10677.9,6113.05 10693.18,6123.13 10708.1,6133.49 10722.68,6144.13 10736.89,6155.03 10750.72,6166.2 10764.19,6177.62 10777.28,6189.28 10789.97,6201.19 10802.27,6213.32 10814.19,6225.68 10825.69,6238.26 10836.79,6251.04 10847.47,6264.02 10857.72,6277.2 10867.56,6290.57 10876.95,6304.11 10885.91,6317.83 10894.42,6331.71 10902.48,6345.75 10910.07,6359.93 10917.21,6374.26 10923.87,6388.72 10930.05,6403.31 10935.75,6418.02 10940.95,6432.83 10945.65,6447.76 10949.85,6462.76 10953.54,6477.86 10956.71,6493.04 "></polygon>
   </g>
   <polygon class="fil1" points="10836.41,6461.43 10983.11,6808.28 11018.39,6429.74 "></polygon>
   <g>
    <path class="fil1" d="M7334.6 4900.44l18.94 -39.52 0.06 0.03 80.16 37.52 81.79 35.43 83.32 33.5 84.71 31.73 86.01 30.09 87.16 28.61 88.21 27.28 89.13 26.11 89.93 25.08 90.61 24.2 91.19 23.5 91.61 22.91 91.94 22.51 92.15 22.25 92.21 22.15 92.18 22.2 92.03 22.4 91.75 22.74 91.35 23.27 90.82 23.94 90.21 24.76 89.44 25.74 88.56 26.88 87.58 28.18 86.47 29.62 85.23 31.23 83.88 32.99 82.41 34.93 80.82 37.01 79.11 39.24 77.27 41.66 75.31 44.2 -22.78 37.44 -73.89 -43.38 -75.93 -40.92 -77.83 -38.62 -79.64 -36.47 -81.31 -34.45 -82.88 -32.61 -84.31 -30.89 -85.65 -29.34 -86.84 -27.94 -87.92 -26.68 -88.88 -25.58 -89.73 -24.62 -90.44 -23.84 -91.05 -23.19 -91.51 -22.7 -91.89 -22.36 -92.12 -22.18 -92.23 -22.15 -92.23 -22.27 -92.12 -22.55 -91.87 -22.99 -91.51 -23.58 -91.03 -24.32 -90.43 -25.22 -89.73 -26.27 -88.87 -27.5 -87.92 -28.85 -86.85 -30.39 -85.65 -32.07 -84.34 -33.92 -82.89 -35.91 -81.34 -38.08 0.06 0.03zm18.94 -39.52l0.06 0.03 -0.27 -0.13 0.21 0.1zm-370.18 -233.47l37.86 -21.9 -0.07 -0.12 5.99 9.88 6.37 9.74 6.76 9.6 7.13 9.47 7.49 9.35 7.83 9.21 8.17 9.08 8.52 8.95 8.84 8.83 9.13 8.72 9.44 8.57 9.73 8.46 10 8.33 10.27 8.22 10.52 8.09 10.77 7.97 11 7.86 11.2 7.74 11.43 7.63 11.62 7.53 11.78 7.41 11.98 7.29 12.13 7.21 12.27 7.09 12.4 6.99 12.54 6.9 12.63 6.78 12.74 6.7 12.83 6.61 12.91 6.51 12.96 6.43 13.01 6.34 -18.94 39.52 -13.27 -6.46 -13.26 -6.57 -13.19 -6.67 -13.15 -6.77 -13.08 -6.86 -13.01 -7 -12.9 -7.1 -12.82 -7.21 -12.69 -7.35 -12.57 -7.45 -12.44 -7.59 -12.3 -7.73 -12.12 -7.85 -11.97 -7.99 -11.78 -8.14 -11.58 -8.28 -11.39 -8.43 -11.16 -8.59 -10.93 -8.74 -10.7 -8.91 -10.43 -9.08 -10.18 -9.25 -9.89 -9.42 -9.6 -9.59 -9.3 -9.79 -8.99 -9.98 -8.65 -10.17 -8.31 -10.37 -7.95 -10.57 -7.58 -10.78 -7.19 -10.98 -6.79 -11.2 -0.07 -0.12zm0.07 0.12l-0.08 -0.13 0.01 0.01 0.07 0.12zm-0.99 -343.26l43.04 7.5 0 0.01 -1.81 10.2 -1.92 10.27 -2.01 10.29 -2.04 10.33 -2.09 10.36 -2.08 10.38 -2.09 10.4 -2.05 10.4 -1.99 10.4 -1.92 10.4 -1.83 10.38 -1.71 10.35 -1.57 10.32 -1.42 10.29 -1.24 10.22 -1.04 10.17 -0.83 10.1 -0.59 10.01 -0.34 9.94 -0.06 9.85 0.21 9.74 0.52 9.64 0.84 9.5 1.19 9.38 1.53 9.27 1.91 9.12 2.29 9.01 2.69 8.87 3.11 8.72 3.55 8.59 4.02 8.48 4.51 8.35 -37.86 21.9 -5.59 -10.37 -4.98 -10.5 -4.41 -10.63 -3.83 -10.76 -3.29 -10.83 -2.77 -10.89 -2.29 -10.96 -1.83 -11.01 -1.39 -11.04 -0.98 -11.08 -0.6 -11.08 -0.25 -11.08 0.08 -11.09 0.38 -11.08 0.65 -11.07 0.91 -11.04 1.12 -11.03 1.34 -10.98 1.5 -10.95 1.67 -10.9 1.79 -10.85 1.89 -10.78 1.98 -10.74 2.05 -10.66 2.09 -10.58 2.09 -10.48 2.1 -10.4 2.07 -10.3 2.02 -10.19 1.95 -10.07 1.86 -9.91 1.75 -9.82 0 0.01zm-41.88 -297.2l34.88 -26.42 0.02 0.03 6.85 9.53 6.41 9.67 5.95 9.81 5.5 9.92 5.06 10 4.65 10.12 4.24 10.2 3.85 10.28 3.45 10.35 3.08 10.39 2.73 10.46 2.38 10.5 2.04 10.53 1.74 10.56 1.42 10.6 1.13 10.6 0.86 10.6 0.59 10.63 0.35 10.62 0.11 10.62 -0.12 10.6 -0.32 10.58 -0.52 10.57 -0.71 10.53 -0.86 10.51 -1.04 10.47 -1.17 10.44 -1.31 10.39 -1.43 10.34 -1.54 10.29 -1.63 10.21 -1.72 10.17 -43.04 -7.5 1.64 -9.79 1.57 -9.83 1.48 -9.83 1.35 -9.84 1.25 -9.83 1.11 -9.84 0.96 -9.83 0.82 -9.81 0.65 -9.81 0.48 -9.77 0.3 -9.74 0.1 -9.7 -0.09 -9.66 -0.31 -9.62 -0.53 -9.55 -0.78 -9.5 -1.01 -9.46 -1.26 -9.36 -1.52 -9.3 -1.8 -9.23 -2.06 -9.14 -2.37 -9.06 -2.66 -8.99 -2.97 -8.89 -3.29 -8.8 -3.62 -8.72 -3.97 -8.62 -4.32 -8.54 -4.68 -8.44 -5.05 -8.33 -5.45 -8.25 -5.87 -8.15 0.02 0.03zm34.88 -26.42l0.02 0.03 -0.74 -0.99 0.72 0.96zm-264.87 -105.4l8.52 -43.02 10.02 2.11 9.94 2.29 9.83 2.48 9.75 2.65 9.66 2.85 9.55 3.02 9.45 3.2 9.33 3.37 9.2 3.53 9.1 3.7 8.97 3.88 8.85 4.03 8.71 4.2 8.56 4.34 8.43 4.51 8.28 4.65 8.14 4.82 7.97 4.96 7.81 5.1 7.65 5.24 7.48 5.4 7.31 5.53 7.12 5.67 6.93 5.8 6.76 5.93 6.57 6.08 6.35 6.2 6.15 6.33 5.94 6.44 5.74 6.58 5.52 6.72 5.28 6.81 -34.88 26.42 -4.5 -5.81 -4.7 -5.72 -4.92 -5.64 -5.14 -5.58 -5.35 -5.49 -5.53 -5.4 -5.73 -5.3 -5.92 -5.21 -6.13 -5.12 -6.3 -5.01 -6.47 -4.91 -6.64 -4.78 -6.83 -4.68 -6.99 -4.58 -7.15 -4.44 -7.3 -4.32 -7.46 -4.19 -7.61 -4.07 -7.76 -3.94 -7.87 -3.8 -8.03 -3.65 -8.15 -3.52 -8.26 -3.36 -8.4 -3.23 -8.51 -3.07 -8.61 -2.92 -8.73 -2.76 -8.8 -2.59 -8.93 -2.43 -9.01 -2.28 -9.08 -2.09 -9.18 -1.93z"></path>
   </g>
   <polygon class="fil1" points="10084.98,5626.81 10381.45,5941.34 9977.18,5826.91 "></polygon>
   <g>
    <polygon class="fil3" points="8950.05,6475.39 8906.63,6470.43 8907.72,6454.33 8907.37,6438.11 8905.62,6421.76 8902.52,6405.29 8898.1,6388.72 8892.4,6372.08 8885.46,6355.38 8877.33,6338.69 8868.07,6322.02 8857.72,6305.43 8846.35,6288.96 8834.02,6272.64 8820.78,6256.53 8806.7,6240.63 8791.85,6225.01 8776.31,6209.68 8760.12,6194.71 8743.35,6180.1 8726.08,6165.89 8708.37,6152.13 8690.3,6138.83 8671.91,6126.04 8653.31,6113.78 8634.52,6102.08 8615.65,6090.98 8596.74,6080.51 8577.88,6070.69 8559.13,6061.56 8540.57,6053.13 8522.26,6045.46 8504.28,6038.56 8486.7,6032.46 8500.28,5990.76 8519.24,5997.34 8538.48,6004.74 8557.99,6012.91 8577.67,6021.84 8597.48,6031.49 8617.36,6041.83 8637.25,6052.86 8657.08,6064.52 8676.81,6076.8 8696.35,6089.68 8715.66,6103.11 8734.67,6117.09 8753.3,6131.59 8771.51,6146.56 8789.24,6162.01 8806.41,6177.9 8822.97,6194.21 8838.84,6210.91 8853.96,6227.99 8868.28,6245.42 8881.71,6263.2 8894.2,6281.29 8905.67,6299.68 8916.05,6318.35 8925.26,6337.28 8933.24,6356.48 8939.88,6375.9 8945.12,6395.53 8948.84,6415.34 8950.97,6435.29 8951.4,6455.33 "></polygon>
   </g>
   <polygon class="fil3" points="8826,6410.99 8953.19,6789.44 9020.03,6393.93 "></polygon>
  </g>
  <polygon class="fil0" points="3093.85,9041.4 3093.85,7568.14 3892.57,7568.14 3892.57,7796.56 3359.83,7796.56 3359.83,8184.43 3851.94,8184.43 3851.94,8406.72 3359.83,8406.72 3359.83,8811.44 3946.23,8811.44 3927.83,9041.4 3093.08,9041.4 "></polygon>
  <polygon class="fil0" points="4194.58,9041.4 4194.58,7568.14 4460.57,7568.14 4460.57,8810.68 5039.29,8810.68 5023.2,9040.64 4194.58,9040.64 "></polygon>
  <polygon class="fil0" points="5609.59,7798.86 5609.59,9041.4 5345.14,9041.4 5345.14,7798.86 4925.08,7798.86 4925.08,7568.91 6050.34,7568.91 6034.25,7798.86 "></polygon>
  <path class="fil0" d="M6846.77 8688.8l-534.27 0 -118.05 352.6 -264.45 0 500.54 -1468.66 302.01 -8.44 536.57 1477.1 -295.88 0 -125.71 -352.6 -0.76 0zm-474.48 -213.86l406.25 0 -212.32 -616.29 -193.94 616.29 0.01 0z"></path>
  <polygon class="fil0" points="7302.85,8367.62 7857.05,8367.62 7857.05,8575.35 7302.85,8575.35 "></polygon>
  <polygon class="fil1" points="8976.17,8423.58 8301.63,8423.58 8301.63,9042.17 8035.65,9042.17 8035.65,7568.91 8301.63,7568.91 8301.63,8182.89 8976.17,8182.89 8976.17,7568.91 9242.16,7568.91 9242.16,9042.17 8976.17,9042.17 "></polygon>
  <path class="fil1" d="M10115.23 9064.4c-426.18,0 -602.49,-226.13 -602.49,-686.81l0 -809.45 265.99 0 0 802.55c0,290.52 88.15,454.55 360.27,454.55 272.11,0 336.5,-159.43 336.5,-435.38l0 -821.72 252.19 0 0 821.71c0,423.13 -198.53,674.55 -612.46,674.55l0 0z"></path>
  <path class="fil1" d="M11439.79 9042.17l-442.29 0 0 -1477.87 346.48 0c311.97,0 556.5,98.12 556.5,395.53 0,297.41 -82.02,264.45 -220,311.98 228.43,43.69 314.28,212.33 314.28,341.1 0,266.75 -212.33,428.49 -554.2,428.49l-0.77 0.77zm-88.15 -1280.1l-88.15 0 0 439.22 140.28 0c131.84,0 238.38,-81.25 238.38,-214.63 0,-133.37 -118.04,-224.59 -290.51,-224.59zm14.57 620.12l-101.95 0 0 447.65 183.96 0c146.41,0 274.42,-60.56 274.42,-206.2 0,-145.64 -115.75,-241.45 -356.43,-241.45z"></path>
  <path class="fil0" d="M2844.73 9041.4l-595.59 -1484.76 -649.25 0 46.76 273.65 286.68 0 0 95.05 -107.32 25.29 -442.28 1090 1460.23 0.01 0.77 0.76zm-754.26 -1118.36l348.77 882.27 -696.78 0 348.77 -882.27 -0.76 0z"></path>
  <g id="_2586040053440">
   <path class="fil0" d="M5966.93 4249.88c0,36.77 -56.82,68.53 -82.73,82.73 -76.88,42.62 -151.25,40.95 -197.21,41.78 -104.46,0.84 -207.24,29.25 -311.7,41.79 -261.56,30.92 -391.92,45.96 -488.01,82.72 -65.19,25.08 -132.87,68.53 -269.91,155.44 -222.29,141.22 -242.34,176.32 -405.29,279.93 -157.94,101.12 -152.92,76.88 -477.15,259.89 -188.02,105.29 -283.29,159.6 -373.54,228.13 -81.05,61.83 -203.89,156.26 -321.72,311.69 -57.66,76.05 -104.45,161.28 -197.21,332.59 -112.81,208.07 -119.5,244.84 -197.21,363.5 -106.97,162.95 -162.12,244.01 -259.89,269.91 -137.88,35.94 -269.91,-54.31 -311.69,-82.73 -97.77,-66.85 -142.06,-149.57 -207.24,-269.91 -71.87,-131.19 -106.97,-249.02 -124.51,-321.72 -20.9,-84.4 -61.01,-254.87 -30.92,-467.12 12.53,-89.42 42.61,-173.82 103.61,-342.62 98.61,-274.09 134.54,-296.65 176.32,-467.12 35.1,-142.06 56.83,-231.47 41.79,-352.64 -20.06,-157.1 -80.23,-186.35 -82.73,-352.64 0,-32.59 6.68,-105.29 20.89,-249.02 2.51,-21.73 4.18,-40.95 5.85,-58.5 10.03,-96.93 13.37,-123.67 4.18,-170.47 -20.06,-104.45 -62.68,-109.47 -72.71,-197.21 -10.86,-96.94 37.61,-129.52 51.81,-228.13 15.05,-102.79 -21.72,-164.62 -82.73,-321.72 -71.03,-181.34 -23.39,-104.46 -145.4,-457.1 -95.26,-275.76 -142.89,-414.48 -187.18,-498.04 -82.73,-159.61 -145.41,-225.63 -187.19,-394.43 -45.96,-187.18 -6.68,-255.7 10.03,-279.93 58.5,-84.4 169.63,-98.61 207.24,-103.62 150.42,-19.22 195.54,60.16 425.34,114.48 91.92,21.73 178.83,28.41 352.64,41.78 207.24,15.88 279.11,6.69 363.51,62.68 79.38,52.64 81.06,103.61 145.4,187.18 81.89,105.29 177.99,150.42 549.85,279.94 271.59,95.26 407.8,142.06 518.94,173.81 110.3,30.92 431.19,118.66 861.54,178.83 319.22,45.13 478.82,67.69 581.61,62.67 180.5,-9.19 325.9,-44.29 477.15,41.79 46.8,25.9 130.36,73.53 166.29,166.29 25.91,66.85 5.02,105.29 41.78,197.21 12.54,32.59 34.27,87.74 82.73,135.38 49.3,48.46 80.23,42.61 239,114.48 116.15,52.65 141.22,73.53 155.43,103.62 19.22,39.27 22.56,95.26 0,135.37 -39.28,67.69 -148.75,72.71 -384.4,62.68 -340.94,-15.88 -511.41,-23.4 -633.41,-62.68 -94.43,-30.08 -211.42,-92.75 -446.24,-218.1 -254.03,-135.37 -246.51,-147.91 -363.5,-197.21 -203.06,-86.07 -376.88,-112.81 -529.8,-135.38 -280.77,-40.94 -277.43,0 -549.85,-41.78 -215.6,-32.59 -368.52,-55.99 -539.83,-155.43 -106.12,-61.84 -220.61,-152.92 -300.83,-218.1 -41.78,-33.43 -120.33,-97.77 -236.48,-184.68 -14.21,-10.03 -45.13,-33.42 -74.38,-54.31 -116.99,-83.57 -363.5,-244.01 -384.39,-218.11 -15.04,18.39 85.24,136.21 187.18,218.11 60.17,49.3 78.55,50.97 155.43,114.48 71.87,58.49 99.44,91.92 155.44,145.4 38.44,36.77 82.73,73.54 238.99,187.19 203.9,147.07 305.85,220.61 373.53,259.88 373.54,213.09 667.68,87.74 1027.84,290.8 77.72,43.46 153.76,100.28 176.32,187.19 19.22,71.86 -15.04,105.29 -10.02,218.1 0.83,22.56 6.68,131.2 62.67,238.99 62.67,119.5 157.94,181.34 249.02,239 81.89,50.97 153.76,82.73 332.59,145.4 472.14,165.46 643.44,218.1 643.44,218.1 157.94,48.47 279.11,81.9 279.94,135.38l1.68 -5.86z"></path>
   <circle class="fil2 str0" cx="3861.11" cy="3024.83" r="62.67"></circle>
   <polyline class="fil2 str1" points="2247.49,3534.57 2453.89,3534.57 2894.27,3024.83 3807.63,3024.83 "></polyline>
   <polyline class="fil2 str2" points="3119.9,3541.26 3182.57,3767.72 3912.92,3772.73 "></polyline>
   <polyline class="fil2 str2" points="3577.83,3772.73 3714.87,3628.17 4141.05,3629.84 "></polyline>
   <polyline class="fil2 str2" points="3904.57,3625.66 3904.57,3491.12 4232.97,3491.12 "></polyline>
   <ellipse class="fil2 str3" cx="4286.45" cy="3491.12" rx="50.97" ry="49.3"></ellipse>
   <ellipse class="fil2 str4" cx="4190.36" cy="3630.67" rx="50.97" ry="49.3"></ellipse>
   <ellipse class="fil2 str5" cx="3963.9" cy="3772.73" rx="50.97" ry="49.3"></ellipse>
   <ellipse class="fil2 str6" cx="3098.17" cy="3502.82" rx="50.97" ry="49.3"></ellipse>
   <polyline class="fil2 str1" points="2259.19,3630.67 2423.81,3645.71 2576.73,3864.65 "></polyline>
   <ellipse class="fil2 str7" cx="2611.83" cy="3899.75" rx="50.97" ry="49.3"></ellipse>
   <line class="fil2 str8" x1="2304.31" y1="4552.38" x2="2484.81" y2="4600.85"></line>
   <polyline class="fil2 str1" points="2335.23,4338.46 2640.24,4369.38 2798.18,4608.37 2844.97,4613.39 "></polyline>
   <circle class="fil3" cx="2863.36" cy="4611.71" r="36.77"></circle>
   <polyline class="fil2 str8" points="2270.89,4152.11 2788.15,4144.59 2977,4142.09 3167.53,4363.53 3222.68,4362.7 "></polyline>
   <circle class="fil2 str9" cx="3249.42" cy="4362.7" r="36.77"></circle>
   <line class="fil2 str8" x1="2243.31" y1="3995.01" x2="2434.67" y2="3959.08"></line>
   <circle class="fil2 str10" cx="2455.56" cy="3956.57" r="36.77"></circle>
   <circle class="fil2 str11" cx="2504.03" cy="4610.04" r="36.77"></circle>
   <circle class="fil2 str12" cx="3469.2" cy="4910.87" r="40.94"></circle>
   <polyline class="fil2 str8" points="2818.23,3354.08 2992.05,3142.66 3617.11,3142.66 "></polyline>
   <circle class="fil2 str13" cx="3676.43" cy="3142.66" r="59.33"></circle>
   <polyline class="fil2 str8" points="3500.95,4232.34 3563.63,4005.88 4293.97,4000.86 "></polyline>
   <polyline class="fil2 str8" points="3958.88,4000.86 4096.76,4145.43 4522.11,4143.76 "></polyline>
   <polyline class="fil2 str8" points="4285.62,4147.94 4285.62,4282.47 4614.03,4282.47 "></polyline>
   <ellipse class="fil2 str14" cx="4667.51" cy="4282.47" rx="50.97" ry="49.3"></ellipse>
   <ellipse class="fil2 str15" cx="4571.41" cy="4142.92" rx="50.97" ry="49.3"></ellipse>
   <ellipse class="fil2 str16" cx="4344.95" cy="4000.86" rx="50.97" ry="49.3"></ellipse>
   <ellipse class="fil2 str17" cx="3479.23" cy="4270.78" rx="50.97" ry="49.3"></ellipse>
   <ellipse class="fil2 str18" transform="matrix(0.25966 -0.179797 0.179797 0.25966 5200.93 4225.18)" rx="95.25" ry="92.6"></ellipse>
   <polyline class="fil2 str2" points="5173.07,4213.95 4995.91,4147.94 4905.66,4028.44 "></polyline>
   <ellipse class="fil2 str19" transform="matrix(0.25966 -0.179797 0.179797 0.25966 4885.83 4010.34)" rx="95.25" ry="92.6"></ellipse>
   <circle class="fil2 str20" cx="2644.42" cy="1692.82" r="35.93"></circle>
   <circle class="fil2 str21" cx="2962.8" cy="1996.99" r="35.93"></circle>
   <polyline class="fil2 str8" points="2643.58,1728.75 2702.08,1792.26 2700.41,1851.59 2768.09,1916.77 2869.21,1919.28 2928.54,1973.59 "></polyline>
   <rect class="fil4" transform="matrix(-0.100738 0.299337 -0.299337 -0.100738 5758.55 2540.05)" width="439.21" height="441.85"></rect>
   <rect class="fil4" transform="matrix(-0.100738 0.299337 -0.299337 -0.100738 5707.94 2688.26)" width="439.21" height="441.85"></rect>
   <rect class="fil4" transform="matrix(-0.100738 0.299337 -0.299337 -0.100738 5610.69 2489.92)" width="439.21" height="441.85"></rect>
   <rect class="fil4" transform="matrix(-0.100738 0.299337 -0.299337 -0.100738 5560.91 2638.96)" width="439.21" height="441.85"></rect>
   <rect class="fil4" transform="matrix(-0.100738 0.299337 -0.299337 -0.100738 5459.06 2439.71)" width="439.21" height="441.85"></rect>
   <rect class="fil4" transform="matrix(-0.100738 0.299337 -0.299337 -0.100738 5409.28 2587.92)" width="439.21" height="441.85"></rect>
   <rect class="fil4" transform="matrix(-0.100738 0.299337 -0.299337 -0.100738 5312.03 2390.41)" width="439.21" height="441.85"></rect>
   <rect class="fil4" transform="matrix(-0.100738 0.299337 -0.299337 -0.100738 5261.42 2538.62)" width="439.21" height="441.85"></rect>
   <polyline class="fil2 str1" points="2051.95,5064.63 2222.42,5064.63 2553.33,4747.93 "></polyline>
   <circle class="fil3" cx="2553.33" cy="4747.93" r="40.11"></circle>
   <line class="fil2 str1" x1="2699.57" y1="4905.86" x2="3439.95" y2="4905.86"></line>
   <polyline class="fil2 str2" points="4153.59,2126.52 3546.91,2130.7 3546.91,2410.63 "></polyline>
   <polyline class="fil2 str2" points="3875.32,2126.52 3989.8,2251.03 4343.28,2249.35 "></polyline>
   <polyline class="fil2 str2" points="4146.07,2252.7 4146.9,2368.85 4419.32,2368.85 "></polyline>
   <circle class="fil2 str22" cx="4463.61" cy="2368.85" r="41.78"></circle>
   <circle class="fil2 str23" cx="4384.22" cy="2248.52" r="41.78"></circle>
   <circle class="fil2 str24" cx="4195.37" cy="2126.52" r="41.78"></circle>
   <polyline class="fil2 str1" points="1825.49,5322.85 2514.06,5322.85 2870.88,5659.61 "></polyline>
   <circle class="fil3" cx="2870.88" cy="5659.61" r="74.37"></circle>
   <polyline class="fil2 str1" points="2064.48,2565.23 2229.1,2549.35 2382.03,2331.25 "></polyline>
   <ellipse class="fil2 str25" cx="2417.12" cy="2296.15" rx="50.97" ry="49.3"></ellipse>
   <line class="fil2 str8" x1="2067.82" y1="2759.1" x2="2945.25" y2="2759.1"></line>
   <circle class="fil2 str26" cx="3015.44" cy="2759.1" r="70.19"></circle>
   <polyline class="fil2 str8" points="2026.88,5733.15 2329.38,5786.63 2468.93,6036.48 2514.9,6044.84 "></polyline>
   <circle class="fil2 str27" cx="2583.42" cy="6057.38" r="70.19"></circle>
   <line class="fil2 str8" x1="1891.5" y1="2225.96" x2="2133.84" y2="2067.19"></line>
   <circle class="fil2 str28" cx="2178.97" cy="2033.76" r="70.19"></circle>
   <line class="fil2 str1" x1="2648.6" y1="5067.98" x2="3005.42" y2="5404.74"></line>
   <circle class="fil2 str29" cx="3055.55" cy="5442.34" r="74.37"></circle>
   <rect class="fil2 str30" x="3659.72" y="4401.13" width="399.44" height="399.44"></rect>
   <rect class="fil4" x="3679.78" y="4421.19" width="359.33" height="359.33"></rect>
   <rect class="fil0" x="5690.33" y="4432.89" width="210.58" height="210.58"></rect>
   <rect class="fil4" x="5218.2" y="4630.1" width="170.47" height="155.43"></rect>
   <rect class="fil4" x="3513.49" y="5986.34" width="160.44" height="172.98"></rect>
   <circle class="fil0" cx="3399.84" cy="5606.96" r="78.55"></circle>
   <circle class="fil0" cx="4638.26" cy="5055.44" r="89.41"></circle>
   <rect class="fil0" x="2679.52" y="6536.2" width="208.07" height="208.07"></rect>
   <rect class="fil0" x="3087.2" y="6671.2" width="225.62" height="225.62"></rect>
   <rect class="fil0" x="7106.74" y="2380.55" width="175.49" height="175.49"></rect>
   <rect class="fil4" x="7364.96" y="2152.42" width="180.5" height="180.5"></rect>
   <rect class="fil0" x="6465.81" y="2338.77" width="250.69" height="250.69"></rect>
   <rect class="fil0" x="7515.37" y="2530.97" width="157.94" height="157.94"></rect>
   <rect class="fil4" x="3869.47" y="5848.47" width="122.84" height="122.84"></rect>
   <path class="fil2 str1" d="M4496.2 3166.05c19.22,61.01 51.81,146.24 108.64,239 50.13,81.89 104.45,144.56 131.19,172.14 193.04,192.2 678.48,275.13 726.12,266.77"></path>
   <path class="fil2 str1" d="M4531.3 2768.29c55.99,2.51 183,15.88 312.53,101.11 116.99,77.72 177.15,175.49 203.89,224.79"></path>
   <path class="fil2 str31" d="M3041.35 6475.2c19.22,-118.67 66.01,-304.18 198.04,-481.33 78.56,-104.46 195.55,-218.11 467.13,-354.31 213.92,-106.97 437.88,-177.16 668.51,-233.98 192.2,-46.8 407.8,-66.86 506.4,-265.74 43.46,-88.58 53.48,-188.85 68.53,-286.62 15.04,-97.77 39.27,-198.89 105.29,-272.42 114.48,-127.86 439.55,-96.1 601.66,-116.16"></path>
   <path class="fil2 str32" d="M4188.68 5739.83c250.7,-150.41 530.64,-234.81 783,-382.72 222.28,-116.16 327.58,-203.9 284.12,-496.37"></path>
   <path class="fil2 str1" d="M6637.12 3298.09c151.25,-59.33 234.81,-137.89 283.28,-198.05 100.28,-125.35 100.28,-235.65 212.25,-311.7 78.55,-53.48 167.96,-59.33 226.46,-56.82"></path>
   <path class="fil2 str33" d="M6722.35 3043.22c11.7,-55.99 42.62,-166.3 130.36,-271.59 68.53,-82.73 143.73,-128.69 190.53,-152.08"></path>
   <path class="fil5" d="M4565.56 3060.88c-6.69,0 111.97,58.9 200.55,141.01 72.7,67.83 66.86,74.08 139.55,161.55 41.79,49.98 94.43,74.97 143.73,102.63 116.99,65.16 225.63,94.61 467.96,150.84 3.35,0 45.96,10.71 131.2,29.45 323.4,74.07 330.92,74.97 368.52,84.78 122,31.24 224.79,57.12 347.63,108 152.08,63.36 251.53,104.42 298.32,188.32 43.45,77.64 7.52,197.24 5.02,207.95 -4.18,18.74 -9.2,33.91 -11.7,39.27 -26.74,78.54 -58.5,103.53 -82.73,174.04 -5.85,16.06 -12.54,34.81 -15.88,61.58 -10.86,78.54 16.71,141.01 30.08,170.47 0,0 15.05,32.13 35.1,62.47 99.44,144.59 385.23,263.29 385.23,263.29 246.52,113.35 453.76,182.07 584.12,224.91 274.92,88.36 379.38,114.24 729.51,217.77 376.88,111.56 564.9,167.79 740.38,231.15 291.64,105.32 502.22,181.18 744.56,330.23 178.83,109.78 385.23,238.3 518.1,461.42 71.03,118.71 106.96,249.9 118.66,325.77l175.49 16.06c-4.18,-64.26 -17.55,-152.62 -58.5,-253.47 -13.37,-33.02 -61,-144.59 -172.14,-273.11 -96.94,-113.34 -195.54,-184.74 -271.59,-239.18 -182.16,-131.2 -347.62,-207.06 -503.89,-278.46 -199.72,-91.04 -355.98,-144.59 -547.34,-210.64 -189.69,-65.15 -353.48,-113.34 -671.86,-206.16 -382.72,-111.57 -429.52,-120.49 -666.01,-194.57 -369.35,-116.02 -501.38,-173.14 -600.82,-222.23 -273.26,-128.52 -490.52,-270.43 -397.77,-511.4 36.77,-104.42 96.1,-203.49 93.59,-312.37 -15.87,-210.64 -312.53,-313.27 -545.67,-383.78 -137.88,-41.95 -273.26,-70.51 -544.84,-126.74 -147.07,-30.34 -160.44,-31.23 -234.82,-49.98 -131.19,-32.13 -264.06,-66.04 -380.21,-122.27 -58.5,-27.67 -111.98,-60.69 -157.94,-99.96 -34.26,-29.45 -60.16,-62.47 -91.08,-93.71 -44.29,-43.73 -91.92,-87.46 -147.91,-124.06 -38.44,-25.88 -91.09,-47.3 -154.59,-52.65l-0.01 1.78z"></path>
   <path class="fil5" d="M5000.09 3180.47c-11.7,7.14 102.79,162.44 330.92,254.36 61,24.99 132.03,40.17 274.92,71.41 215.6,46.4 285.79,49.98 504.73,91.92 224.79,42.84 378.54,83 423.67,94.61 178.83,47.3 370.19,99.07 503.89,202.59 147.08,113.35 137.88,250.8 116.99,397.17 -14.2,97.28 -23.39,205.27 40.11,295.41 69.36,96.39 201.4,152.62 326.74,205.28 397.77,166.01 747.9,244.54 782.16,252.58 620.05,139.23 930.07,208.84 1249.29,299.88 349.29,99.06 590.79,169.57 882.43,316.83 181.34,91.04 426.18,217.77 642.61,447.14 50.98,54.45 198.89,217.77 299.16,456.96 50.98,120.49 71.04,219.56 83.57,298.1l124.51 5.36c-4.18,-56.23 -21.73,-85.68 -43.45,-167.79 -14.21,-52.66 -50.14,-174.93 -135.38,-322.2 -45.13,-77.65 -144.57,-233.83 -329.24,-401.62 -45.96,-41.95 -228.13,-203.49 -589.97,-382.89 -357.65,-177.6 -666,-260.6 -1041.21,-360.57 -563.22,-149.04 -1271.01,-263.28 -1821.7,-481.95 -203.89,-81.21 -374.36,-182.96 -386.9,-366.81 -5.85,-88.36 28.41,-175.83 33.42,-264.19 17.55,-321.3 -579.09,-467.67 -919.2,-539.96 -203.9,-43.73 -202.23,-27.66 -600.83,-101.74 -258.21,-47.31 -353.47,-71.41 -459.6,-118.71 -193.87,-85.68 -282.45,-184.75 -291.64,-178.5l0 -2.67z"></path>
   <g>
    <path class="fil6" d="M5737.13 3823.97c111.14,39.27 218.94,89.24 318.38,141.9 99.44,53.55 177.99,138.34 167.13,228.48 -10.03,83 -88.58,149.94 -150.42,215.99 -69.35,74.97 -104.45,157.97 -113.64,248.11 -0.84,11.61 -1.67,40.16 0,57.12 1.67,14.28 5.01,29.45 5.01,29.45 0,0 0,0 0,0.9 2.51,11.6 8.36,30.34 20.89,56.22 0,0.9 0.84,2.68 1.67,3.57 0,0 10.87,20.53 25.08,42.84 34.26,51.77 73.53,91.93 73.53,91.93 22.56,23.2 40.11,37.49 73.54,65.15 45.96,37.49 82.73,64.26 91.92,70.51 13.37,9.82 57.65,41.06 129.52,82.11 35.1,20.53 72.7,41.06 180.5,94.61 79.38,39.27 118.66,58.9 186.35,91.03 190.52,90.15 355.14,162.44 538.15,246.33 162.11,74.08 307.52,141.91 480.49,226.7 62.68,30.34 197.22,85.68 341.78,182.07 55.16,36.59 88.58,64.26 98.61,72.29 34.26,27.67 132.03,107.99 201.39,219.56 94.43,150.83 119.49,319.51 115.32,398.05l102.78 8.93c6.69,-46.41 -6.68,-147.27 -28.41,-230.27 -45.12,-173.14 -170.47,-290.95 -246.51,-361.46 -77.72,-72.29 -152.09,-122.27 -226.46,-172.26 -20.06,-13.38 -95.27,-63.36 -229.8,-138.33 -82.73,-45.52 -190.53,-102.64 -376.04,-188.32 -90.25,-41.94 -218.1,-97.28 -469.63,-205.27 -152.09,-65.16 -257.38,-110.67 -403.62,-182.07 -96.1,-46.41 -167.13,-83.9 -245.68,-132.99 -109.47,-68.72 -164.62,-114.24 -189.69,-136.55 -40.11,-35.7 -82.73,-74.07 -119.49,-132.98 -19.22,-31.24 -44.29,-73.19 -50.14,-130.3 -5.02,-50.88 6.68,-89.25 13.37,-110.67 17.54,-54.45 45.96,-91.04 95.26,-153.51 54.32,-68.72 71.87,-76.76 107.8,-132.98 28.41,-43.74 41.78,-66.05 46.8,-96.39 13.36,-79.44 -42.62,-144.59 -63.51,-167.8l-91.92 -88.35c66.85,23.2 69.35,23.2 95.26,33.02 66.02,24.1 99.44,37.49 116.99,45.52 18.39,8.92 94.43,54.44 112.82,128.52 10.02,41.94 -3.35,74.97 -21.73,119.59 -10.03,24.1 -21.73,45.52 -81.89,127.63 -38.44,52.66 -102.79,116.92 -110.31,181.17 -12.53,107.1 36.77,199.93 121.17,284.71 78.55,78.54 158.77,125.84 254.87,181.18 90.25,51.76 160.45,84.78 252.37,126.73 51.81,24.1 140.38,63.37 331.75,139.23 166.29,65.16 293.31,111.57 320.05,122.28 411.13,150.83 694.42,254.36 1009.45,396.27 204.74,91.92 313.37,149.94 376.88,186.53 125.35,70.51 259.88,147.26 400.27,271.32 64.34,57.12 139.55,124.95 208.07,228.48 67.69,102.63 97.77,196.34 112.82,262.39l123.67 10.71c-5.85,-42.84 -18.38,-104.42 -50.14,-175.82 -75.21,-170.47 -208.07,-281.14 -350.13,-397.16 -126.18,-102.64 -239,-171.36 -327.57,-224.91 -60.17,-36.6 -161.28,-97.29 -304.18,-163.33 -130.36,-60.69 -176.32,-71.4 -395.26,-156.19 -241.5,-94.6 -213.92,-92.82 -417.82,-171.36 -190.52,-74.08 -200.55,-69.62 -504.72,-182.07 -228.13,-83.89 -327.58,-125.84 -377.72,-146.37 -198.04,-83.9 -293.31,-134.77 -345.12,-163.33 -172.97,-97.28 -233.97,-157.97 -250.69,-174.93 -61.84,-63.36 -105.29,-107.99 -116.99,-169.57 -34.26,-172.26 219.77,-261.5 214.76,-463.21 0,-29.45 -2.51,-93.71 -57.66,-149.05 -32.59,-32.13 -86.91,-64.26 -96.1,-70.5 -13.37,-8.04 -34.26,-19.64 -72.7,-37.49 -62.67,-29.45 -122.84,-51.77 -188.85,-74.08 -65.19,-21.42 -122.84,-38.37 -188.02,-56.22 -111.14,-29.46 -228.13,-60.7 -386.07,-90.15 -172.14,-32.13 -177.16,-32.13 -304.17,-58.01l486.33 165.12zm0 0l0 0 0 0z"></path>
   </g>
   <path class="fil3" d="M7563.84 4548.67c255.71,201.71 576.6,262.4 879.93,332.01 445.4,97.29 950.96,174.93 1394.69,280.25 463.78,109.78 912.52,305.23 1309.45,583.69 -418.65,-236.51 -860.71,-413.22 -1323.66,-513.18 -386.06,-84.79 -775.47,-149.05 -1160.7,-237.41 -154.6,-34.8 -309.19,-73.18 -461.28,-117.81 -228.13,-66.93 -460.43,-155.29 -638.43,-326.65l0 0 0 -0.9z"></path>
   <path class="fil6" d="M9865.2 5094.88c-299.16,-75.86 -605,-126.73 -910.85,-186.53 -424.5,-90.14 -938.42,-144.59 -1262.65,-381.99 -252.37,-177.61 -249.86,-427.51 -421.17,-629.21 -202.22,-229.37 -601.66,-304.34 -932.57,-381.1 -264.9,-58.91 -543.17,-116.91 -801.38,-183.85 -6.69,-1.79 -13.37,-3.57 -19.22,-5.36 -45.96,-12.49 -51.81,-16.96 -26.74,-14.28 163.78,24.99 350.97,64.26 525.62,95.5 266.57,50.87 545.67,98.17 805.56,171.36 164.62,46.41 328.4,110.67 446.23,208.84 118.66,99.07 166.29,226.7 225.62,348.08 66.02,134.77 147.08,261.5 289.14,361.46 117.82,83 261.55,145.48 411.97,191 133.7,41.05 273.26,68.72 414.48,92.82 127.85,21.42 249.85,48.19 376.04,70.51 284.12,50.87 569.07,99.95 842.32,175.82 180.5,49.98 399.44,116.02 544.01,161.54 77.71,24.99 -436.21,-79.43 -502.22,-93.71l-3.35 0 -0.84 -0.9z"></path>
   <polygon class="fil6" points="10567.14,5363.53 10476.89,5479.55 10318.12,5413.5 10409.2,5297.48 "></polygon>
   <path class="fil6" d="M6581.13 5168.07c-7.52,55.33 -65.18,94.6 -128.69,88.36 -63.51,-6.25 -108.64,-57.12 -101.12,-112.46 7.52,-55.33 65.19,-94.61 128.69,-88.36 63.51,6.25 108.64,57.12 101.12,112.46z"></path>
   <path class="fil5" d="M7080.84 4296.1c-5.01,36.59 -43.45,63.36 -86.07,58.9 -42.62,-4.46 -72.7,-38.37 -67.69,-74.97 5.02,-36.59 43.46,-63.36 86.08,-58.9 42.61,4.46 72.7,38.37 67.68,74.97z"></path>
   <polygon class="fil5" points="8412.86,5298.37 8226.51,5256.43 8284.17,5120.77 8469.68,5162.72 "></polygon>
   <path class="fil6" d="M8579.15 5742.84c-9.19,56.23 -78.55,96.39 -155.43,89.25 -76.88,-7.14 -131.2,-58.01 -122.01,-113.35 9.19,-56.23 78.55,-96.39 155.43,-89.25 76.88,7.14 131.2,58.01 122.01,113.35z"></path>
   <g>
    <path class="fil3" d="M11418.45 5912.07l-21.48 30.94 -0.16 -0.12 -4.98 -3.53 -4.96 -3.47 -4.93 -3.39 -4.93 -3.33 -4.92 -3.28 -4.92 -3.22 -4.88 -3.16 -4.86 -3.08 -4.84 -3.04 -4.83 -2.97 -4.81 -2.93 -4.77 -2.86 -4.73 -2.79 -4.72 -2.75 -4.71 -2.7 -4.65 -2.63 -4.63 -2.59 -4.57 -2.52 -4.57 -2.47 -4.51 -2.43 -4.48 -2.37 -4.45 -2.33 -4.38 -2.26 -4.36 -2.21 -4.31 -2.18 -4.26 -2.12 -4.23 -2.08 -4.16 -2.03 -4.1 -1.97 -4.08 -1.94 -3.99 -1.88 -3.96 -1.84 15.76 -34.24 4.08 1.9 4.15 1.96 4.2 2 4.26 2.05 4.32 2.11 4.35 2.14 4.42 2.2 4.47 2.24 4.52 2.31 4.58 2.36 4.59 2.41 4.66 2.45 4.71 2.53 4.73 2.57 4.79 2.64 4.81 2.69 4.85 2.75 4.87 2.8 4.92 2.85 4.97 2.93 4.99 3 4.99 3.03 5.03 3.11 5.06 3.16 5.1 3.24 5.1 3.3 5.12 3.36 5.14 3.42 5.17 3.49 5.19 3.57 5.18 3.63 5.2 3.69 -0.16 -0.12zm-21.48 30.94l-0.16 -0.12 0.5 0.36 -0.34 -0.24zm151.52 81.65l-27.36 25.82 0.12 0.14 -5.22 -5.42 -5.2 -5.31 -5.18 -5.18 -5.13 -5.06 -5.1 -4.94 -5.03 -4.81 -4.99 -4.67 -4.93 -4.56 -4.87 -4.44 -4.77 -4.29 -4.71 -4.17 -4.62 -4.04 -4.52 -3.89 -4.43 -3.76 -4.32 -3.62 -4.22 -3.5 -4.07 -3.34 -3.97 -3.2 -3.85 -3.08 -3.69 -2.91 -3.55 -2.78 -3.4 -2.62 -3.26 -2.48 -3.09 -2.34 -2.93 -2.19 -2.76 -2.05 -2.53 -1.86 -2.4 -1.73 -2.2 -1.6 -1.94 -1.38 -1.81 -1.27 -1.59 -1.12 21.48 -30.94 1.67 1.18 1.89 1.33 2.16 1.54 2.3 1.66 2.5 1.81 2.75 2.02 2.86 2.13 3.07 2.29 3.23 2.44 3.4 2.6 3.58 2.76 3.71 2.9 3.87 3.05 3.99 3.2 4.15 3.34 4.27 3.5 4.38 3.62 4.5 3.78 4.61 3.92 4.72 4.07 4.8 4.2 4.91 4.33 4.99 4.49 5.05 4.6 5.13 4.74 5.21 4.89 5.27 5.03 5.3 5.14 5.35 5.28 5.4 5.4 5.44 5.55 5.46 5.66 0.12 0.14zm-0.12 -0.14l0.12 0.14 -0.68 -0.73 0.56 0.59zm129.3 185.38l-33.76 16.54 -0.01 -0.03 -3.85 -7.82 -3.93 -7.68 -3.97 -7.55 -4.03 -7.4 -4.07 -7.26 -4.12 -7.11 -4.15 -6.98 -4.18 -6.83 -4.18 -6.69 -4.2 -6.53 -4.21 -6.4 -4.2 -6.23 -4.21 -6.09 -4.18 -5.93 -4.15 -5.77 -4.15 -5.63 -4.09 -5.47 -4.07 -5.31 -4.01 -5.15 -3.96 -5 -3.89 -4.83 -3.84 -4.68 -3.74 -4.5 -3.68 -4.34 -3.59 -4.18 -3.49 -4.02 -3.39 -3.84 -3.3 -3.68 -3.16 -3.52 -3.05 -3.32 -2.95 -3.19 -2.78 -3 27.36 -25.82 2.92 3.12 3.03 3.29 3.21 3.5 3.32 3.68 3.44 3.84 3.55 4.04 3.67 4.2 3.75 4.38 3.86 4.56 3.94 4.74 4.02 4.9 4.09 5.07 4.16 5.24 4.21 5.41 4.27 5.59 4.31 5.75 4.35 5.91 4.39 6.09 4.4 6.25 4.41 6.41 4.44 6.57 4.43 6.74 4.44 6.89 4.42 7.05 4.4 7.21 4.37 7.36 4.36 7.53 4.31 7.68 4.27 7.84 4.21 7.99 4.15 8.14 4.09 8.3 -0.01 -0.03zm-33.76 16.54l-0.01 -0.03 1.44 2.98 -1.43 -2.95zm93.82 195.1l-37.4 3.5 -0.48 -4.98 -0.54 -5.07 -0.6 -5.17 -0.66 -5.24 -0.73 -5.33 -0.8 -5.46 -0.86 -5.52 -0.93 -5.59 -1.01 -5.68 -1.09 -5.79 -1.16 -5.85 -1.24 -5.9 -1.34 -6.01 -1.42 -6.09 -1.51 -6.15 -1.6 -6.23 -1.71 -6.31 -1.79 -6.39 -1.9 -6.42 -2 -6.5 -2.11 -6.58 -2.22 -6.65 -2.33 -6.71 -2.44 -6.77 -2.56 -6.82 -2.67 -6.9 -2.81 -6.94 -2.91 -7 -3.06 -7.07 -3.17 -7.11 -3.32 -7.16 -3.45 -7.21 33.76 -16.54 3.65 7.65 3.52 7.6 3.37 7.55 3.24 7.49 3.11 7.44 2.97 7.38 2.85 7.32 2.72 7.26 2.6 7.21 2.47 7.13 2.36 7.07 2.25 7 2.14 6.94 2.02 6.88 1.91 6.79 1.81 6.71 1.72 6.65 1.61 6.57 1.52 6.49 1.42 6.41 1.34 6.34 1.24 6.25 1.15 6.15 1.09 6.08 0.99 5.99 0.92 5.9 0.84 5.78 0.79 5.71 0.7 5.64 0.64 5.51 0.58 5.43 0.52 5.32z"></path>
   </g>
   <polygon class="fil3" points="11634.48,6373.06 11744.22,6682.24 11793.5,6355.72 "></polygon>
   <g>
    <polygon class="fil1" points="7275.73,5833.69 7264.59,5876.11 7229.39,5866.49 7192.39,5855.8 7153.79,5844.08 7113.73,5831.4 7072.4,5817.79 7029.96,5803.31 6986.59,5788 6942.48,5771.94 6897.78,5755.15 6852.66,5737.71 6807.32,5719.63 6761.92,5701.01 6716.63,5681.87 6671.64,5662.26 6627.1,5642.24 6583.21,5621.87 6540.14,5601.18 6498.05,5580.22 6457.11,5559.05 6417.51,5537.72 6379.42,5516.27 6342.99,5494.74 6308.41,5473.18 6275.82,5451.63 6245.42,5430.11 6217.34,5408.67 6191.76,5387.3 6168.82,5366.01 6148.69,5344.78 6131.54,5323.54 6117.56,5302.16 6107.06,5280.54 6147.66,5264.34 6155.46,5280.34 6166.74,5297.56 6181.45,5315.76 6199.44,5334.73 6220.54,5354.3 6244.52,5374.33 6271.22,5394.71 6300.42,5415.37 6331.95,5436.22 6365.59,5457.2 6401.18,5478.23 6438.53,5499.26 6477.45,5520.23 6517.75,5541.08 6559.28,5561.74 6601.81,5582.17 6645.2,5602.32 6689.26,5622.12 6733.81,5641.53 6778.66,5660.49 6823.64,5678.95 6868.58,5696.85 6913.28,5714.15 6957.58,5730.78 7001.29,5746.7 7044.24,5761.85 7086.24,5776.19 7127.11,5789.64 7166.69,5802.18 7204.77,5813.74 7241.17,5824.25 "></polygon>
   </g>
   <polygon class="fil1" points="7186.74,5934.44 7542.85,5927.26 7231.53,5743.07 "></polygon>
   <g>
    <polygon class="fil1" points="10141.8,5018.88 10141.18,4975.02 10169.67,4975.05 10199.19,4975.93 10229.67,4977.61 10261.03,4980.08 10293.17,4983.31 10326.02,4987.29 10359.5,4991.99 10393.52,4997.39 10427.98,5003.46 10462.8,5010.2 10497.9,5017.57 10533.19,5025.55 10568.58,5034.14 10603.98,5043.3 10639.29,5053.02 10674.45,5063.27 10709.35,5074.04 10743.92,5085.31 10778.05,5097.05 10811.65,5109.25 10844.65,5121.89 10876.96,5134.94 10908.49,5148.41 10939.16,5162.26 10968.86,5176.46 10997.52,5191.04 11025.06,5205.94 11051.39,5221.18 11076.43,5236.72 11100.07,5252.57 11122.26,5268.72 11142.9,5285.19 11114.92,5318.87 11095.86,5303.68 11075.13,5288.59 11052.81,5273.62 11029.01,5258.84 11003.8,5244.26 10977.3,5229.92 10949.6,5215.84 10920.8,5202.06 10890.99,5188.59 10860.26,5175.48 10828.71,5162.73 10796.43,5150.37 10763.53,5138.43 10730.08,5126.91 10696.19,5115.86 10661.95,5105.29 10627.43,5095.24 10592.74,5085.7 10558,5076.7 10523.25,5068.27 10488.62,5060.43 10454.2,5053.2 10420.06,5046.6 10386.32,5040.65 10353.06,5035.37 10320.38,5030.79 10288.37,5026.91 10257.13,5023.76 10226.75,5021.37 10197.33,5019.75 10168.99,5018.91 "></polygon>
   </g>
   <polygon class="fil1" points="11206.34,5200.31 11448.68,5545.17 11077.57,5375.79 "></polygon>
   <g>
    <polygon class="fil1" points="10959.34,6508.28 10916.18,6515.04 10913.79,6501.28 10910.94,6487.58 10907.59,6473.92 10903.79,6460.3 10899.51,6446.75 10894.77,6433.26 10889.59,6419.85 10883.93,6406.52 10877.83,6393.28 10871.29,6380.13 10864.3,6367.09 10856.88,6354.15 10849.03,6341.35 10840.75,6328.67 10832.06,6316.13 10822.94,6303.74 10813.41,6291.5 10803.47,6279.42 10793.13,6267.5 10782.39,6255.76 10771.27,6244.22 10759.75,6232.87 10747.86,6221.72 10735.59,6210.78 10722.94,6200.06 10709.93,6189.55 10696.56,6179.29 10682.84,6169.27 10668.76,6159.51 10654.34,6149.99 10639.59,6140.75 10624.49,6131.78 10646.31,6093.78 10662.27,6103.27 10677.9,6113.05 10693.18,6123.13 10708.1,6133.49 10722.68,6144.13 10736.89,6155.03 10750.72,6166.2 10764.19,6177.62 10777.28,6189.28 10789.97,6201.19 10802.27,6213.32 10814.19,6225.68 10825.69,6238.26 10836.79,6251.04 10847.47,6264.02 10857.72,6277.2 10867.56,6290.57 10876.95,6304.11 10885.91,6317.83 10894.42,6331.71 10902.48,6345.75 10910.07,6359.93 10917.21,6374.26 10923.87,6388.72 10930.05,6403.31 10935.75,6418.02 10940.95,6432.83 10945.65,6447.76 10949.85,6462.76 10953.54,6477.86 10956.71,6493.04 "></polygon>
   </g>
   <polygon class="fil1" points="10836.41,6461.43 10983.11,6808.28 11018.39,6429.74 "></polygon>
   <g>
    <path class="fil1" d="M7334.6 4900.44l18.94 -39.52 0.06 0.03 80.16 37.52 81.79 35.43 83.32 33.5 84.71 31.73 86.01 30.09 87.16 28.61 88.21 27.28 89.13 26.11 89.93 25.08 90.61 24.2 91.19 23.5 91.61 22.91 91.94 22.51 92.15 22.25 92.21 22.15 92.18 22.2 92.03 22.4 91.75 22.74 91.35 23.27 90.82 23.94 90.21 24.76 89.44 25.74 88.56 26.88 87.58 28.18 86.47 29.62 85.23 31.23 83.88 32.99 82.41 34.93 80.82 37.01 79.11 39.24 77.27 41.66 75.31 44.2 -22.78 37.44 -73.89 -43.38 -75.93 -40.92 -77.83 -38.62 -79.64 -36.47 -81.31 -34.45 -82.88 -32.61 -84.31 -30.89 -85.65 -29.34 -86.84 -27.94 -87.92 -26.68 -88.88 -25.58 -89.73 -24.62 -90.44 -23.84 -91.05 -23.19 -91.51 -22.7 -91.89 -22.36 -92.12 -22.18 -92.23 -22.15 -92.23 -22.27 -92.12 -22.55 -91.87 -22.99 -91.51 -23.58 -91.03 -24.32 -90.43 -25.22 -89.73 -26.27 -88.87 -27.5 -87.92 -28.85 -86.85 -30.39 -85.65 -32.07 -84.34 -33.92 -82.89 -35.91 -81.34 -38.08 0.06 0.03zm18.94 -39.52l0.06 0.03 -0.27 -0.13 0.21 0.1zm-370.18 -233.47l37.86 -21.9 -0.07 -0.12 5.99 9.88 6.37 9.74 6.76 9.6 7.13 9.47 7.49 9.35 7.83 9.21 8.17 9.08 8.52 8.95 8.84 8.83 9.13 8.72 9.44 8.57 9.73 8.46 10 8.33 10.27 8.22 10.52 8.09 10.77 7.97 11 7.86 11.2 7.74 11.43 7.63 11.62 7.53 11.78 7.41 11.98 7.29 12.13 7.21 12.27 7.09 12.4 6.99 12.54 6.9 12.63 6.78 12.74 6.7 12.83 6.61 12.91 6.51 12.96 6.43 13.01 6.34 -18.94 39.52 -13.27 -6.46 -13.26 -6.57 -13.19 -6.67 -13.15 -6.77 -13.08 -6.86 -13.01 -7 -12.9 -7.1 -12.82 -7.21 -12.69 -7.35 -12.57 -7.45 -12.44 -7.59 -12.3 -7.73 -12.12 -7.85 -11.97 -7.99 -11.78 -8.14 -11.58 -8.28 -11.39 -8.43 -11.16 -8.59 -10.93 -8.74 -10.7 -8.91 -10.43 -9.08 -10.18 -9.25 -9.89 -9.42 -9.6 -9.59 -9.3 -9.79 -8.99 -9.98 -8.65 -10.17 -8.31 -10.37 -7.95 -10.57 -7.58 -10.78 -7.19 -10.98 -6.79 -11.2 -0.07 -0.12zm0.07 0.12l-0.08 -0.13 0.01 0.01 0.07 0.12zm-0.99 -343.26l43.04 7.5 0 0.01 -1.81 10.2 -1.92 10.27 -2.01 10.29 -2.04 10.33 -2.09 10.36 -2.08 10.38 -2.09 10.4 -2.05 10.4 -1.99 10.4 -1.92 10.4 -1.83 10.38 -1.71 10.35 -1.57 10.32 -1.42 10.29 -1.24 10.22 -1.04 10.17 -0.83 10.1 -0.59 10.01 -0.34 9.94 -0.06 9.85 0.21 9.74 0.52 9.64 0.84 9.5 1.19 9.38 1.53 9.27 1.91 9.12 2.29 9.01 2.69 8.87 3.11 8.72 3.55 8.59 4.02 8.48 4.51 8.35 -37.86 21.9 -5.59 -10.37 -4.98 -10.5 -4.41 -10.63 -3.83 -10.76 -3.29 -10.83 -2.77 -10.89 -2.29 -10.96 -1.83 -11.01 -1.39 -11.04 -0.98 -11.08 -0.6 -11.08 -0.25 -11.08 0.08 -11.09 0.38 -11.08 0.65 -11.07 0.91 -11.04 1.12 -11.03 1.34 -10.98 1.5 -10.95 1.67 -10.9 1.79 -10.85 1.89 -10.78 1.98 -10.74 2.05 -10.66 2.09 -10.58 2.09 -10.48 2.1 -10.4 2.07 -10.3 2.02 -10.19 1.95 -10.07 1.86 -9.91 1.75 -9.82 0 0.01zm-41.88 -297.2l34.88 -26.42 0.02 0.03 6.85 9.53 6.41 9.67 5.95 9.81 5.5 9.92 5.06 10 4.65 10.12 4.24 10.2 3.85 10.28 3.45 10.35 3.08 10.39 2.73 10.46 2.38 10.5 2.04 10.53 1.74 10.56 1.42 10.6 1.13 10.6 0.86 10.6 0.59 10.63 0.35 10.62 0.11 10.62 -0.12 10.6 -0.32 10.58 -0.52 10.57 -0.71 10.53 -0.86 10.51 -1.04 10.47 -1.17 10.44 -1.31 10.39 -1.43 10.34 -1.54 10.29 -1.63 10.21 -1.72 10.17 -43.04 -7.5 1.64 -9.79 1.57 -9.83 1.48 -9.83 1.35 -9.84 1.25 -9.83 1.11 -9.84 0.96 -9.83 0.82 -9.81 0.65 -9.81 0.48 -9.77 0.3 -9.74 0.1 -9.7 -0.09 -9.66 -0.31 -9.62 -0.53 -9.55 -0.78 -9.5 -1.01 -9.46 -1.26 -9.36 -1.52 -9.3 -1.8 -9.23 -2.06 -9.14 -2.37 -9.06 -2.66 -8.99 -2.97 -8.89 -3.29 -8.8 -3.62 -8.72 -3.97 -8.62 -4.32 -8.54 -4.68 -8.44 -5.05 -8.33 -5.45 -8.25 -5.87 -8.15 0.02 0.03zm34.88 -26.42l0.02 0.03 -0.74 -0.99 0.72 0.96zm-264.87 -105.4l8.52 -43.02 10.02 2.11 9.94 2.29 9.83 2.48 9.75 2.65 9.66 2.85 9.55 3.02 9.45 3.2 9.33 3.37 9.2 3.53 9.1 3.7 8.97 3.88 8.85 4.03 8.71 4.2 8.56 4.34 8.43 4.51 8.28 4.65 8.14 4.82 7.97 4.96 7.81 5.1 7.65 5.24 7.48 5.4 7.31 5.53 7.12 5.67 6.93 5.8 6.76 5.93 6.57 6.08 6.35 6.2 6.15 6.33 5.94 6.44 5.74 6.58 5.52 6.72 5.28 6.81 -34.88 26.42 -4.5 -5.81 -4.7 -5.72 -4.92 -5.64 -5.14 -5.58 -5.35 -5.49 -5.53 -5.4 -5.73 -5.3 -5.92 -5.21 -6.13 -5.12 -6.3 -5.01 -6.47 -4.91 -6.64 -4.78 -6.83 -4.68 -6.99 -4.58 -7.15 -4.44 -7.3 -4.32 -7.46 -4.19 -7.61 -4.07 -7.76 -3.94 -7.87 -3.8 -8.03 -3.65 -8.15 -3.52 -8.26 -3.36 -8.4 -3.23 -8.51 -3.07 -8.61 -2.92 -8.73 -2.76 -8.8 -2.59 -8.93 -2.43 -9.01 -2.28 -9.08 -2.09 -9.18 -1.93z"></path>
   </g>
   <polygon class="fil1" points="10084.98,5626.81 10381.45,5941.34 9977.18,5826.91 "></polygon>
   <g>
    <polygon class="fil3" points="8950.05,6475.39 8906.63,6470.43 8907.72,6454.33 8907.37,6438.11 8905.62,6421.76 8902.52,6405.29 8898.1,6388.72 8892.4,6372.08 8885.46,6355.38 8877.33,6338.69 8868.07,6322.02 8857.72,6305.43 8846.35,6288.96 8834.02,6272.64 8820.78,6256.53 8806.7,6240.63 8791.85,6225.01 8776.31,6209.68 8760.12,6194.71 8743.35,6180.1 8726.08,6165.89 8708.37,6152.13 8690.3,6138.83 8671.91,6126.04 8653.31,6113.78 8634.52,6102.08 8615.65,6090.98 8596.74,6080.51 8577.88,6070.69 8559.13,6061.56 8540.57,6053.13 8522.26,6045.46 8504.28,6038.56 8486.7,6032.46 8500.28,5990.76 8519.24,5997.34 8538.48,6004.74 8557.99,6012.91 8577.67,6021.84 8597.48,6031.49 8617.36,6041.83 8637.25,6052.86 8657.08,6064.52 8676.81,6076.8 8696.35,6089.68 8715.66,6103.11 8734.67,6117.09 8753.3,6131.59 8771.51,6146.56 8789.24,6162.01 8806.41,6177.9 8822.97,6194.21 8838.84,6210.91 8853.96,6227.99 8868.28,6245.42 8881.71,6263.2 8894.2,6281.29 8905.67,6299.68 8916.05,6318.35 8925.26,6337.28 8933.24,6356.48 8939.88,6375.9 8945.12,6395.53 8948.84,6415.34 8950.97,6435.29 8951.4,6455.33 "></polygon>
   </g>
   <polygon class="fil3" points="8826,6410.99 8953.19,6789.44 9020.03,6393.93 "></polygon>
  </g>
 </g>
</svg>